%TF.GenerationSoftware,KiCad,Pcbnew,(7.0.0)*%
%TF.CreationDate,2024-03-24T23:30:49+02:00*%
%TF.ProjectId,Sensing Subsystem,53656e73-696e-4672-9053-756273797374,rev?*%
%TF.SameCoordinates,Original*%
%TF.FileFunction,Copper,L2,Bot*%
%TF.FilePolarity,Positive*%
%FSLAX46Y46*%
G04 Gerber Fmt 4.6, Leading zero omitted, Abs format (unit mm)*
G04 Created by KiCad (PCBNEW (7.0.0)) date 2024-03-24 23:30:49*
%MOMM*%
%LPD*%
G01*
G04 APERTURE LIST*
G04 Aperture macros list*
%AMRoundRect*
0 Rectangle with rounded corners*
0 $1 Rounding radius*
0 $2 $3 $4 $5 $6 $7 $8 $9 X,Y pos of 4 corners*
0 Add a 4 corners polygon primitive as box body*
4,1,4,$2,$3,$4,$5,$6,$7,$8,$9,$2,$3,0*
0 Add four circle primitives for the rounded corners*
1,1,$1+$1,$2,$3*
1,1,$1+$1,$4,$5*
1,1,$1+$1,$6,$7*
1,1,$1+$1,$8,$9*
0 Add four rect primitives between the rounded corners*
20,1,$1+$1,$2,$3,$4,$5,0*
20,1,$1+$1,$4,$5,$6,$7,0*
20,1,$1+$1,$6,$7,$8,$9,0*
20,1,$1+$1,$8,$9,$2,$3,0*%
%AMRotRect*
0 Rectangle, with rotation*
0 The origin of the aperture is its center*
0 $1 length*
0 $2 width*
0 $3 Rotation angle, in degrees counterclockwise*
0 Add horizontal line*
21,1,$1,$2,0,0,$3*%
G04 Aperture macros list end*
%TA.AperFunction,ComponentPad*%
%ADD10R,1.800000X1.800000*%
%TD*%
%TA.AperFunction,ComponentPad*%
%ADD11C,1.800000*%
%TD*%
%TA.AperFunction,ComponentPad*%
%ADD12RotRect,1.800000X1.800000X225.000000*%
%TD*%
%TA.AperFunction,ComponentPad*%
%ADD13C,2.000000*%
%TD*%
%TA.AperFunction,ComponentPad*%
%ADD14RoundRect,0.250000X-0.350000X-0.350000X0.350000X-0.350000X0.350000X0.350000X-0.350000X0.350000X0*%
%TD*%
%TA.AperFunction,ComponentPad*%
%ADD15C,1.200000*%
%TD*%
%TA.AperFunction,ComponentPad*%
%ADD16RotRect,1.800000X1.800000X135.000000*%
%TD*%
%TA.AperFunction,ViaPad*%
%ADD17C,0.800000*%
%TD*%
%TA.AperFunction,Conductor*%
%ADD18C,0.250000*%
%TD*%
G04 APERTURE END LIST*
D10*
%TO.P,D5,1,K*%
%TO.N,Net-(D5-K)*%
X176534999Y-75594999D03*
D11*
%TO.P,D5,2,A*%
%TO.N,Net-(D5-A)*%
X173995000Y-75595000D03*
%TD*%
D12*
%TO.P,D1,1,K*%
%TO.N,Net-(D1-K)*%
X152399999Y-81002699D03*
D11*
%TO.P,D1,2,A*%
%TO.N,Net-(D1-A)*%
X150603949Y-82798751D03*
%TD*%
D13*
%TO.P,D6,1*%
%TO.N,Vout2*%
X140443974Y-82023974D03*
%TO.P,D6,2*%
%TO.N,+3V3*%
X142240026Y-83820026D03*
%TD*%
%TO.P,D4,1*%
%TO.N,Vout1*%
X167640000Y-68580000D03*
%TO.P,D4,2*%
%TO.N,+3V3*%
X167640000Y-71120000D03*
%TD*%
D14*
%TO.P,J2,1,Pin_1*%
%TO.N,unconnected-(J2-Pin_1-Pad1)*%
X154720000Y-122460000D03*
D15*
%TO.P,J2,2,Pin_2*%
%TO.N,+3V3*%
X154720000Y-124460000D03*
%TO.P,J2,3,Pin_3*%
%TO.N,GND*%
X156720000Y-122460000D03*
%TO.P,J2,4,Pin_4*%
%TO.N,+BATT*%
X156720000Y-124460000D03*
%TO.P,J2,5,Pin_5*%
%TO.N,/PA3*%
X158720000Y-122460000D03*
%TO.P,J2,6,Pin_6*%
%TO.N,unconnected-(J2-Pin_6-Pad6)*%
X158720000Y-124460000D03*
%TO.P,J2,7,Pin_7*%
%TO.N,/PA4*%
X160720000Y-122460000D03*
%TO.P,J2,8,Pin_8*%
%TO.N,unconnected-(J2-Pin_8-Pad8)*%
X160720000Y-124460000D03*
%TO.P,J2,9,Pin_9*%
%TO.N,GND*%
X162720000Y-122460000D03*
%TO.P,J2,10,Pin_10*%
%TO.N,unconnected-(J2-Pin_10-Pad10)*%
X162720000Y-124460000D03*
%TO.P,J2,11,Pin_11*%
%TO.N,/PA5*%
X164720000Y-122460000D03*
%TO.P,J2,12,Pin_12*%
%TO.N,unconnected-(J2-Pin_12-Pad12)*%
X164720000Y-124460000D03*
%TO.P,J2,13,Pin_13*%
%TO.N,/PA6*%
X166720000Y-122460000D03*
%TO.P,J2,14,Pin_14*%
%TO.N,unconnected-(J2-Pin_14-Pad14)*%
X166720000Y-124460000D03*
%TO.P,J2,15,Pin_15*%
%TO.N,GND*%
X168720000Y-122460000D03*
%TO.P,J2,16,Pin_16*%
%TO.N,unconnected-(J2-Pin_16-Pad16)*%
X168720000Y-124460000D03*
%TO.P,J2,17,Pin_17*%
%TO.N,unconnected-(J2-Pin_17-Pad17)*%
X170720000Y-122460000D03*
%TO.P,J2,18,Pin_18*%
%TO.N,unconnected-(J2-Pin_18-Pad18)*%
X170720000Y-124460000D03*
%TO.P,J2,19,Pin_19*%
%TO.N,unconnected-(J2-Pin_19-Pad19)*%
X172720000Y-122460000D03*
%TO.P,J2,20,Pin_20*%
%TO.N,unconnected-(J2-Pin_20-Pad20)*%
X172720000Y-124460000D03*
%TO.P,J2,21,Pin_21*%
%TO.N,GND*%
X174720000Y-122460000D03*
%TO.P,J2,22,Pin_22*%
%TO.N,unconnected-(J2-Pin_22-Pad22)*%
X174720000Y-124460000D03*
%TO.P,J2,23,Pin_23*%
%TO.N,unconnected-(J2-Pin_23-Pad23)*%
X176720000Y-122460000D03*
%TO.P,J2,24,Pin_24*%
%TO.N,unconnected-(J2-Pin_24-Pad24)*%
X176720000Y-124460000D03*
%TO.P,J2,25,Pin_25*%
%TO.N,unconnected-(J2-Pin_25-Pad25)*%
X178720000Y-122460000D03*
%TO.P,J2,26,Pin_26*%
%TO.N,+BATT*%
X178720000Y-124460000D03*
%TO.P,J2,27,Pin_27*%
%TO.N,GND*%
X180720000Y-122460000D03*
%TO.P,J2,28,Pin_28*%
%TO.N,+3V3*%
X180720000Y-124460000D03*
%TD*%
D16*
%TO.P,D8,1,K*%
%TO.N,Net-(D8-K)*%
X190777299Y-85345899D03*
D11*
%TO.P,D8,2,A*%
%TO.N,Net-(D8-A)*%
X188981249Y-83549849D03*
%TD*%
D10*
%TO.P,D2,1,K*%
%TO.N,Net-(D2-K)*%
X161294999Y-78134999D03*
D11*
%TO.P,D2,2,A*%
%TO.N,Net-(D2-A)*%
X158755000Y-78135000D03*
%TD*%
D13*
%TO.P,D3,1*%
%TO.N,Vout3*%
X200660026Y-83819974D03*
%TO.P,D3,2*%
%TO.N,+3V3*%
X198863974Y-85616026D03*
%TD*%
D17*
%TO.N,GND*%
X157407700Y-102047200D03*
X157407700Y-94267700D03*
%TO.N,Net-(JP2-B)*%
X187967600Y-115269500D03*
X198714400Y-95786500D03*
%TO.N,/PA3*%
X169216600Y-95369900D03*
%TO.N,Net-(D8-A)*%
X190964200Y-95187100D03*
%TO.N,Net-(D5-K)*%
X194407200Y-99094800D03*
%TO.N,/PA6*%
X137948000Y-111767000D03*
%TO.N,Net-(JP16-B)*%
X180233500Y-90572100D03*
X174498400Y-93980000D03*
%TO.N,Net-(Q4-B)*%
X166732800Y-110725500D03*
X157568400Y-92390000D03*
%TD*%
D18*
%TO.N,GND*%
X169657500Y-123397500D02*
X168720000Y-122460000D01*
X157407700Y-122460000D02*
X157407700Y-102047200D01*
X162720000Y-122460000D02*
X161782500Y-123397500D01*
X157407700Y-102047200D02*
X157407700Y-94267700D01*
X167774100Y-121514100D02*
X163665900Y-121514100D01*
X157407700Y-122460000D02*
X156720000Y-122460000D01*
X174720000Y-122460000D02*
X173782500Y-123397500D01*
X163665900Y-121514100D02*
X162720000Y-122460000D01*
X158345200Y-123397500D02*
X157407700Y-122460000D01*
X161782500Y-123397500D02*
X158345200Y-123397500D01*
X173782500Y-123397500D02*
X169657500Y-123397500D01*
X168720000Y-122460000D02*
X167774100Y-121514100D01*
%TO.N,Net-(JP2-B)*%
X198714400Y-104522700D02*
X198714400Y-95786500D01*
X187967600Y-115269500D02*
X198714400Y-104522700D01*
%TO.N,+3V3*%
X142240000Y-83820000D02*
X154940000Y-71120000D01*
X154940000Y-71120000D02*
X167640000Y-71120000D01*
X154720000Y-124460000D02*
X142240000Y-111980000D01*
X142240000Y-111980000D02*
X142240000Y-83820000D01*
%TO.N,/PA3*%
X158720000Y-122460000D02*
X169216600Y-111963400D01*
X169216600Y-111963400D02*
X169216600Y-95369900D01*
%TO.N,Net-(D8-A)*%
X188981200Y-83549800D02*
X188981200Y-93204100D01*
X188981200Y-93204100D02*
X190964200Y-95187100D01*
%TO.N,Net-(D5-K)*%
X193844000Y-99094800D02*
X194407200Y-99094800D01*
X176535000Y-75595000D02*
X176535000Y-81785800D01*
X176535000Y-81785800D02*
X193844000Y-99094800D01*
%TO.N,/PA6*%
X165786600Y-123393400D02*
X164434100Y-123393400D01*
X163720000Y-124107500D02*
X163720000Y-124826300D01*
X163720000Y-124826300D02*
X163102100Y-125444200D01*
X164434100Y-123393400D02*
X163720000Y-124107500D01*
X151625200Y-125444200D02*
X137948000Y-111767000D01*
X166720000Y-122460000D02*
X165786600Y-123393400D01*
X163102100Y-125444200D02*
X151625200Y-125444200D01*
%TO.N,Net-(JP16-B)*%
X174498400Y-93980000D02*
X176825600Y-93980000D01*
X176825600Y-93980000D02*
X180233500Y-90572100D01*
%TO.N,Net-(Q4-B)*%
X166732800Y-101554400D02*
X166732800Y-110725500D01*
X157568400Y-92390000D02*
X166732800Y-101554400D01*
%TD*%
%TA.AperFunction,Conductor*%
%TO.N,GND*%
G36*
X171775272Y-123056698D02*
G01*
X171818954Y-123092972D01*
X171899774Y-123199996D01*
X171899779Y-123200001D01*
X171903236Y-123204579D01*
X171907472Y-123208440D01*
X171907476Y-123208445D01*
X172009227Y-123301203D01*
X172053959Y-123341981D01*
X172070997Y-123352530D01*
X172074297Y-123354574D01*
X172117348Y-123399662D01*
X172133018Y-123460000D01*
X172117348Y-123520338D01*
X172074297Y-123565426D01*
X172067023Y-123569930D01*
X172053959Y-123578019D01*
X172049728Y-123581875D01*
X172049724Y-123581879D01*
X171907476Y-123711554D01*
X171907466Y-123711564D01*
X171903236Y-123715421D01*
X171899787Y-123719987D01*
X171899778Y-123719998D01*
X171818954Y-123827028D01*
X171775271Y-123863301D01*
X171720000Y-123876301D01*
X171664729Y-123863301D01*
X171621046Y-123827028D01*
X171540221Y-123719998D01*
X171540217Y-123719994D01*
X171536764Y-123715421D01*
X171532527Y-123711558D01*
X171532523Y-123711554D01*
X171390275Y-123581879D01*
X171390276Y-123581879D01*
X171386041Y-123578019D01*
X171381170Y-123575003D01*
X171381169Y-123575002D01*
X171365704Y-123565427D01*
X171322652Y-123520339D01*
X171306981Y-123460000D01*
X171322652Y-123399661D01*
X171365704Y-123354573D01*
X171386041Y-123341981D01*
X171536764Y-123204579D01*
X171588944Y-123135482D01*
X171621046Y-123092972D01*
X171664728Y-123056698D01*
X171720000Y-123043698D01*
X171775272Y-123056698D01*
G37*
%TD.AperFunction*%
%TA.AperFunction,Conductor*%
G36*
X159775272Y-123056698D02*
G01*
X159818954Y-123092972D01*
X159899774Y-123199996D01*
X159899779Y-123200001D01*
X159903236Y-123204579D01*
X159907472Y-123208440D01*
X159907476Y-123208445D01*
X160009227Y-123301203D01*
X160053959Y-123341981D01*
X160070997Y-123352530D01*
X160074297Y-123354574D01*
X160117348Y-123399662D01*
X160133018Y-123460000D01*
X160117348Y-123520338D01*
X160074297Y-123565426D01*
X160067023Y-123569930D01*
X160053959Y-123578019D01*
X160049728Y-123581875D01*
X160049724Y-123581879D01*
X159907476Y-123711554D01*
X159907466Y-123711564D01*
X159903236Y-123715421D01*
X159899787Y-123719987D01*
X159899778Y-123719998D01*
X159818954Y-123827028D01*
X159775271Y-123863301D01*
X159720000Y-123876301D01*
X159664729Y-123863301D01*
X159621046Y-123827028D01*
X159540221Y-123719998D01*
X159540217Y-123719994D01*
X159536764Y-123715421D01*
X159532527Y-123711558D01*
X159532523Y-123711554D01*
X159390275Y-123581879D01*
X159390276Y-123581879D01*
X159386041Y-123578019D01*
X159381170Y-123575003D01*
X159381169Y-123575002D01*
X159365704Y-123565427D01*
X159322652Y-123520339D01*
X159306981Y-123460000D01*
X159322652Y-123399661D01*
X159365704Y-123354573D01*
X159386041Y-123341981D01*
X159536764Y-123204579D01*
X159588944Y-123135482D01*
X159621046Y-123092972D01*
X159664728Y-123056698D01*
X159720000Y-123043698D01*
X159775272Y-123056698D01*
G37*
%TD.AperFunction*%
%TA.AperFunction,Conductor*%
G36*
X170525662Y-63505430D02*
G01*
X170533130Y-63505547D01*
X171104156Y-63514517D01*
X171105842Y-63514557D01*
X171793272Y-63535946D01*
X171794934Y-63536011D01*
X172372875Y-63563267D01*
X172374670Y-63563365D01*
X173061026Y-63606118D01*
X173062734Y-63606238D01*
X173639540Y-63651634D01*
X173641201Y-63651777D01*
X174325996Y-63715864D01*
X174327957Y-63716065D01*
X174902845Y-63779533D01*
X174904369Y-63779713D01*
X175586928Y-63865077D01*
X175588876Y-63865337D01*
X176161475Y-63946830D01*
X176162884Y-63947041D01*
X176842770Y-64053641D01*
X176844565Y-64053937D01*
X177414045Y-64153327D01*
X177415585Y-64153607D01*
X178092047Y-64281342D01*
X178093878Y-64281704D01*
X178659756Y-64398892D01*
X178661186Y-64399199D01*
X179333432Y-64547927D01*
X179335523Y-64548409D01*
X179897062Y-64683222D01*
X179898300Y-64683528D01*
X180566134Y-64853228D01*
X180568182Y-64853769D01*
X181124885Y-65006066D01*
X181126027Y-65006386D01*
X181788572Y-65196864D01*
X181790771Y-65197519D01*
X182341695Y-65367005D01*
X182343185Y-65367473D01*
X182999700Y-65578532D01*
X183001909Y-65579265D01*
X183547082Y-65765920D01*
X183548375Y-65766372D01*
X184198401Y-65997886D01*
X184200483Y-65998650D01*
X184739022Y-66202147D01*
X184740385Y-66202671D01*
X185383431Y-66454499D01*
X185385534Y-66455346D01*
X185916845Y-66675422D01*
X185918092Y-66675947D01*
X186553555Y-66947891D01*
X186555737Y-66948851D01*
X187079451Y-67185316D01*
X187080409Y-67185756D01*
X187707673Y-67477594D01*
X187709903Y-67478659D01*
X188225295Y-67731147D01*
X188226270Y-67731631D01*
X188844808Y-68043165D01*
X188846869Y-68044229D01*
X189353485Y-68312468D01*
X189354594Y-68313064D01*
X189963647Y-68643957D01*
X189965791Y-68645151D01*
X190294766Y-68832795D01*
X190462883Y-68928687D01*
X190463965Y-68929312D01*
X191063177Y-69279421D01*
X191065343Y-69280717D01*
X191552616Y-69579318D01*
X191553409Y-69579810D01*
X192142363Y-69948962D01*
X192144509Y-69950339D01*
X192448217Y-70149838D01*
X192621172Y-70263449D01*
X192622184Y-70264121D01*
X193200018Y-70651844D01*
X193202227Y-70653361D01*
X193667935Y-70980665D01*
X193668828Y-70981298D01*
X194214787Y-71372795D01*
X194235322Y-71387520D01*
X194237495Y-71389115D01*
X194691662Y-71730113D01*
X194692533Y-71730772D01*
X194808726Y-71819692D01*
X195247081Y-72155151D01*
X195249252Y-72156852D01*
X195691545Y-72511196D01*
X195692385Y-72511874D01*
X196234376Y-72954036D01*
X196236413Y-72955737D01*
X196666585Y-73323139D01*
X196667069Y-73323556D01*
X197063261Y-73667840D01*
X197196190Y-73783354D01*
X197198308Y-73785238D01*
X197615330Y-74164698D01*
X197616031Y-74165340D01*
X198094371Y-74607858D01*
X198131667Y-74642361D01*
X198133738Y-74644322D01*
X198537427Y-75035523D01*
X198538131Y-75036211D01*
X199039855Y-75530192D01*
X199041906Y-75532259D01*
X199431898Y-75934700D01*
X199432406Y-75935228D01*
X199919854Y-76445966D01*
X199921806Y-76448061D01*
X200294693Y-76857858D01*
X200297635Y-76861091D01*
X200298197Y-76861713D01*
X200665946Y-77271847D01*
X200770800Y-77388786D01*
X200772762Y-77391028D01*
X201014445Y-77674003D01*
X201133865Y-77813825D01*
X201134427Y-77814487D01*
X201591912Y-78357788D01*
X201593833Y-78360128D01*
X201940033Y-78792256D01*
X201940297Y-78792587D01*
X202382333Y-79351963D01*
X202384137Y-79354305D01*
X202520182Y-79535500D01*
X202714895Y-79794834D01*
X202715368Y-79795468D01*
X203141257Y-80370297D01*
X203143074Y-80372814D01*
X203458111Y-80821066D01*
X203458541Y-80821683D01*
X203868030Y-81411906D01*
X203869789Y-81414511D01*
X204168721Y-81869590D01*
X204169111Y-81870188D01*
X204561891Y-82475703D01*
X204563588Y-82478394D01*
X204846058Y-82939343D01*
X204846410Y-82939920D01*
X205222197Y-83560710D01*
X205223828Y-83563486D01*
X205489600Y-84029436D01*
X205489914Y-84029990D01*
X205848244Y-84665768D01*
X205849807Y-84668628D01*
X206098608Y-85138530D01*
X206098886Y-85139059D01*
X206439477Y-85789892D01*
X206440967Y-85792834D01*
X206672395Y-86265237D01*
X206672640Y-86265739D01*
X206995285Y-86931929D01*
X206996699Y-86934951D01*
X207210600Y-87408686D01*
X207210813Y-87409161D01*
X207515151Y-88090815D01*
X207516485Y-88093915D01*
X207712481Y-88567090D01*
X207712665Y-88567536D01*
X207998550Y-89265385D01*
X207999800Y-89268561D01*
X208177739Y-89739463D01*
X208177895Y-89739878D01*
X208444999Y-90454470D01*
X208446163Y-90457720D01*
X208605863Y-90924164D01*
X208605993Y-90924548D01*
X208854082Y-91656955D01*
X208855155Y-91660276D01*
X208996264Y-92118953D01*
X208996319Y-92119321D01*
X208996372Y-92119305D01*
X209225393Y-92871657D01*
X209226372Y-92875047D01*
X209348893Y-93322905D01*
X209357447Y-93354500D01*
X209558548Y-94097314D01*
X209559431Y-94100771D01*
X209663178Y-94532908D01*
X209663245Y-94533189D01*
X209853245Y-95332809D01*
X209854028Y-95336329D01*
X209938810Y-95745724D01*
X209938860Y-95745970D01*
X210109195Y-96576949D01*
X210109875Y-96580529D01*
X210175543Y-96956784D01*
X210175579Y-96956994D01*
X210326141Y-97828476D01*
X210326714Y-97832114D01*
X210373226Y-98158924D01*
X210373250Y-98159096D01*
X210503868Y-99086173D01*
X210504332Y-99089866D01*
X210531569Y-99336571D01*
X210531576Y-99336706D01*
X210531584Y-99336706D01*
X210642205Y-100348790D01*
X210642557Y-100352534D01*
X210650542Y-100453989D01*
X210650549Y-100454085D01*
X210740736Y-101611528D01*
X210740976Y-101615378D01*
X210799751Y-102874188D01*
X210799871Y-102878042D01*
X210819485Y-104139035D01*
X210819500Y-104140964D01*
X210819500Y-129415500D01*
X210802887Y-129477500D01*
X210757500Y-129522887D01*
X210695500Y-129539500D01*
X129664500Y-129539500D01*
X129602500Y-129522887D01*
X129557113Y-129477500D01*
X129540500Y-129415500D01*
X129540500Y-111767000D01*
X137042540Y-111767000D01*
X137043219Y-111773460D01*
X137061646Y-111948795D01*
X137061647Y-111948803D01*
X137062326Y-111955256D01*
X137064331Y-111961428D01*
X137064333Y-111961435D01*
X137118813Y-112129105D01*
X137120821Y-112135284D01*
X137124068Y-112140908D01*
X137124069Y-112140910D01*
X137195769Y-112265099D01*
X137215467Y-112299216D01*
X137219811Y-112304041D01*
X137219813Y-112304043D01*
X137321123Y-112416559D01*
X137342129Y-112439888D01*
X137347387Y-112443708D01*
X137347388Y-112443709D01*
X137359934Y-112452824D01*
X137495270Y-112551151D01*
X137668197Y-112628144D01*
X137853354Y-112667500D01*
X137912548Y-112667500D01*
X137960001Y-112676939D01*
X138000229Y-112703819D01*
X151127907Y-125831497D01*
X151135356Y-125839683D01*
X151139414Y-125846077D01*
X151145099Y-125851415D01*
X151145101Y-125851418D01*
X151188439Y-125892115D01*
X151191236Y-125894826D01*
X151210730Y-125914320D01*
X151213815Y-125916713D01*
X151213901Y-125916780D01*
X151222773Y-125924358D01*
X151236080Y-125936854D01*
X151254618Y-125954262D01*
X151261448Y-125958017D01*
X151261451Y-125958019D01*
X151272171Y-125963912D01*
X151288422Y-125974586D01*
X151304264Y-125986874D01*
X151311421Y-125989971D01*
X151311423Y-125989972D01*
X151344355Y-126004222D01*
X151354850Y-126009364D01*
X151393108Y-126030397D01*
X151412512Y-126035379D01*
X151430914Y-126041680D01*
X151442141Y-126046538D01*
X151449305Y-126049638D01*
X151486897Y-126055591D01*
X151492439Y-126056469D01*
X151503882Y-126058839D01*
X151538625Y-126067760D01*
X151538626Y-126067760D01*
X151546181Y-126069700D01*
X151566217Y-126069700D01*
X151585602Y-126071225D01*
X151605396Y-126074360D01*
X151643476Y-126070760D01*
X151648876Y-126070250D01*
X151660545Y-126069700D01*
X163024325Y-126069700D01*
X163035380Y-126070221D01*
X163042767Y-126071873D01*
X163109972Y-126069761D01*
X163113868Y-126069700D01*
X163137548Y-126069700D01*
X163141450Y-126069700D01*
X163145413Y-126069199D01*
X163157063Y-126068280D01*
X163200727Y-126066909D01*
X163219961Y-126061319D01*
X163239017Y-126057374D01*
X163258892Y-126054864D01*
X163299495Y-126038787D01*
X163310550Y-126035002D01*
X163352490Y-126022818D01*
X163369729Y-126012622D01*
X163387203Y-126004062D01*
X163398574Y-125999560D01*
X163398576Y-125999558D01*
X163405832Y-125996686D01*
X163441169Y-125971011D01*
X163450924Y-125964603D01*
X163488520Y-125942370D01*
X163502684Y-125928205D01*
X163517479Y-125915568D01*
X163533687Y-125903794D01*
X163561528Y-125870138D01*
X163569379Y-125861509D01*
X164006094Y-125424794D01*
X164052561Y-125395526D01*
X164107115Y-125389197D01*
X164159050Y-125407050D01*
X164227363Y-125449348D01*
X164417544Y-125523024D01*
X164618024Y-125560500D01*
X164816247Y-125560500D01*
X164821976Y-125560500D01*
X165022456Y-125523024D01*
X165212637Y-125449348D01*
X165386041Y-125341981D01*
X165536764Y-125204579D01*
X165621044Y-125092972D01*
X165664728Y-125056698D01*
X165720000Y-125043698D01*
X165775272Y-125056698D01*
X165818954Y-125092972D01*
X165899774Y-125199996D01*
X165899779Y-125200001D01*
X165903236Y-125204579D01*
X165907472Y-125208440D01*
X165907476Y-125208445D01*
X166009227Y-125301203D01*
X166053959Y-125341981D01*
X166227363Y-125449348D01*
X166417544Y-125523024D01*
X166618024Y-125560500D01*
X166816247Y-125560500D01*
X166821976Y-125560500D01*
X167022456Y-125523024D01*
X167212637Y-125449348D01*
X167386041Y-125341981D01*
X167536764Y-125204579D01*
X167621044Y-125092972D01*
X167664728Y-125056698D01*
X167720000Y-125043698D01*
X167775272Y-125056698D01*
X167818954Y-125092972D01*
X167899774Y-125199996D01*
X167899779Y-125200001D01*
X167903236Y-125204579D01*
X167907472Y-125208440D01*
X167907476Y-125208445D01*
X168009227Y-125301203D01*
X168053959Y-125341981D01*
X168227363Y-125449348D01*
X168417544Y-125523024D01*
X168618024Y-125560500D01*
X168816247Y-125560500D01*
X168821976Y-125560500D01*
X169022456Y-125523024D01*
X169212637Y-125449348D01*
X169386041Y-125341981D01*
X169536764Y-125204579D01*
X169621044Y-125092972D01*
X169664728Y-125056698D01*
X169720000Y-125043698D01*
X169775272Y-125056698D01*
X169818954Y-125092972D01*
X169899774Y-125199996D01*
X169899779Y-125200001D01*
X169903236Y-125204579D01*
X169907472Y-125208440D01*
X169907476Y-125208445D01*
X170009227Y-125301203D01*
X170053959Y-125341981D01*
X170227363Y-125449348D01*
X170417544Y-125523024D01*
X170618024Y-125560500D01*
X170816247Y-125560500D01*
X170821976Y-125560500D01*
X171022456Y-125523024D01*
X171212637Y-125449348D01*
X171386041Y-125341981D01*
X171536764Y-125204579D01*
X171621044Y-125092972D01*
X171664728Y-125056698D01*
X171720000Y-125043698D01*
X171775272Y-125056698D01*
X171818954Y-125092972D01*
X171899774Y-125199996D01*
X171899779Y-125200001D01*
X171903236Y-125204579D01*
X171907472Y-125208440D01*
X171907476Y-125208445D01*
X172009227Y-125301203D01*
X172053959Y-125341981D01*
X172227363Y-125449348D01*
X172417544Y-125523024D01*
X172618024Y-125560500D01*
X172816247Y-125560500D01*
X172821976Y-125560500D01*
X173022456Y-125523024D01*
X173212637Y-125449348D01*
X173386041Y-125341981D01*
X173536764Y-125204579D01*
X173621044Y-125092972D01*
X173664728Y-125056698D01*
X173720000Y-125043698D01*
X173775272Y-125056698D01*
X173818954Y-125092972D01*
X173899774Y-125199996D01*
X173899779Y-125200001D01*
X173903236Y-125204579D01*
X173907472Y-125208440D01*
X173907476Y-125208445D01*
X174009227Y-125301203D01*
X174053959Y-125341981D01*
X174227363Y-125449348D01*
X174417544Y-125523024D01*
X174618024Y-125560500D01*
X174816247Y-125560500D01*
X174821976Y-125560500D01*
X175022456Y-125523024D01*
X175212637Y-125449348D01*
X175386041Y-125341981D01*
X175536764Y-125204579D01*
X175621044Y-125092972D01*
X175664728Y-125056698D01*
X175720000Y-125043698D01*
X175775272Y-125056698D01*
X175818954Y-125092972D01*
X175899774Y-125199996D01*
X175899779Y-125200001D01*
X175903236Y-125204579D01*
X175907472Y-125208440D01*
X175907476Y-125208445D01*
X176009227Y-125301203D01*
X176053959Y-125341981D01*
X176227363Y-125449348D01*
X176417544Y-125523024D01*
X176618024Y-125560500D01*
X176816247Y-125560500D01*
X176821976Y-125560500D01*
X177022456Y-125523024D01*
X177212637Y-125449348D01*
X177386041Y-125341981D01*
X177536764Y-125204579D01*
X177621044Y-125092972D01*
X177664728Y-125056698D01*
X177720000Y-125043698D01*
X177775272Y-125056698D01*
X177818954Y-125092972D01*
X177899774Y-125199996D01*
X177899779Y-125200001D01*
X177903236Y-125204579D01*
X177907472Y-125208440D01*
X177907476Y-125208445D01*
X178009227Y-125301203D01*
X178053959Y-125341981D01*
X178227363Y-125449348D01*
X178417544Y-125523024D01*
X178618024Y-125560500D01*
X178816247Y-125560500D01*
X178821976Y-125560500D01*
X179022456Y-125523024D01*
X179212637Y-125449348D01*
X179386041Y-125341981D01*
X179536764Y-125204579D01*
X179621044Y-125092972D01*
X179664728Y-125056698D01*
X179720000Y-125043698D01*
X179775272Y-125056698D01*
X179818954Y-125092972D01*
X179899774Y-125199996D01*
X179899779Y-125200001D01*
X179903236Y-125204579D01*
X179907472Y-125208440D01*
X179907476Y-125208445D01*
X180009227Y-125301203D01*
X180053959Y-125341981D01*
X180227363Y-125449348D01*
X180417544Y-125523024D01*
X180618024Y-125560500D01*
X180816247Y-125560500D01*
X180821976Y-125560500D01*
X181022456Y-125523024D01*
X181212637Y-125449348D01*
X181386041Y-125341981D01*
X181536764Y-125204579D01*
X181659673Y-125041821D01*
X181750582Y-124859250D01*
X181806397Y-124663083D01*
X181825215Y-124460000D01*
X181806397Y-124256917D01*
X181750582Y-124060750D01*
X181659673Y-123878179D01*
X181611176Y-123813959D01*
X181540221Y-123719998D01*
X181540217Y-123719994D01*
X181536764Y-123715421D01*
X181532527Y-123711558D01*
X181532523Y-123711554D01*
X181390275Y-123581879D01*
X181390276Y-123581879D01*
X181386041Y-123578019D01*
X181372977Y-123569930D01*
X181344902Y-123552546D01*
X181305386Y-123513409D01*
X181286952Y-123460935D01*
X181293309Y-123405682D01*
X181297230Y-123394622D01*
X181290771Y-123384324D01*
X180731542Y-122825095D01*
X180720000Y-122818431D01*
X180708456Y-122825096D01*
X180149228Y-123384323D01*
X180142768Y-123394622D01*
X180146690Y-123405682D01*
X180153047Y-123460935D01*
X180134614Y-123513408D01*
X180095099Y-123552546D01*
X180058830Y-123575003D01*
X180053959Y-123578019D01*
X180049728Y-123581875D01*
X180049724Y-123581879D01*
X179907476Y-123711554D01*
X179907466Y-123711564D01*
X179903236Y-123715421D01*
X179899787Y-123719987D01*
X179899778Y-123719998D01*
X179818954Y-123827028D01*
X179775271Y-123863301D01*
X179720000Y-123876301D01*
X179664729Y-123863301D01*
X179621046Y-123827028D01*
X179540221Y-123719998D01*
X179540217Y-123719994D01*
X179536764Y-123715421D01*
X179532527Y-123711558D01*
X179532523Y-123711554D01*
X179390275Y-123581879D01*
X179390276Y-123581879D01*
X179386041Y-123578019D01*
X179381170Y-123575003D01*
X179381169Y-123575002D01*
X179365704Y-123565427D01*
X179322652Y-123520339D01*
X179306981Y-123460000D01*
X179322652Y-123399661D01*
X179365704Y-123354573D01*
X179386041Y-123341981D01*
X179536764Y-123204579D01*
X179631682Y-123078886D01*
X179682018Y-123039541D01*
X179745262Y-123030479D01*
X179763012Y-123037543D01*
X179781418Y-123038823D01*
X179795111Y-123031334D01*
X180354904Y-122471542D01*
X180361568Y-122460000D01*
X181078431Y-122460000D01*
X181085095Y-122471542D01*
X181644890Y-123031337D01*
X181657054Y-123037990D01*
X181663350Y-123033312D01*
X181747554Y-122864208D01*
X181751685Y-122853545D01*
X181804333Y-122668504D01*
X181806431Y-122657282D01*
X181824184Y-122465709D01*
X181824184Y-122454291D01*
X181806431Y-122262717D01*
X181804333Y-122251495D01*
X181751685Y-122066454D01*
X181747554Y-122055791D01*
X181663352Y-121886690D01*
X181657054Y-121882009D01*
X181644889Y-121888662D01*
X181085096Y-122448456D01*
X181078431Y-122460000D01*
X180361568Y-122460000D01*
X180354904Y-122448457D01*
X179795112Y-121888665D01*
X179781417Y-121881176D01*
X179762990Y-121882459D01*
X179745263Y-121889516D01*
X179682018Y-121880455D01*
X179631679Y-121841109D01*
X179540221Y-121719998D01*
X179540217Y-121719994D01*
X179536764Y-121715421D01*
X179532527Y-121711558D01*
X179532523Y-121711554D01*
X179390275Y-121581879D01*
X179390276Y-121581879D01*
X179386041Y-121578019D01*
X179381171Y-121575004D01*
X179381169Y-121575002D01*
X179302383Y-121526220D01*
X180143298Y-121526220D01*
X180149228Y-121535675D01*
X180708457Y-122094904D01*
X180719999Y-122101568D01*
X180731542Y-122094904D01*
X181290770Y-121535675D01*
X181296700Y-121526220D01*
X181288763Y-121518374D01*
X181217287Y-121474119D01*
X181207070Y-121469031D01*
X181027666Y-121399530D01*
X181016681Y-121396405D01*
X180827559Y-121361052D01*
X180816201Y-121360000D01*
X180623799Y-121360000D01*
X180612440Y-121361052D01*
X180423318Y-121396405D01*
X180412333Y-121399530D01*
X180232927Y-121469032D01*
X180222718Y-121474115D01*
X180151233Y-121518376D01*
X180143298Y-121526220D01*
X179302383Y-121526220D01*
X179217511Y-121473670D01*
X179217512Y-121473670D01*
X179212637Y-121470652D01*
X179105061Y-121428977D01*
X179027803Y-121399047D01*
X179027798Y-121399045D01*
X179022456Y-121396976D01*
X179016818Y-121395922D01*
X178827605Y-121360552D01*
X178827602Y-121360551D01*
X178821976Y-121359500D01*
X178618024Y-121359500D01*
X178612398Y-121360551D01*
X178612394Y-121360552D01*
X178423181Y-121395922D01*
X178423178Y-121395922D01*
X178417544Y-121396976D01*
X178412203Y-121399044D01*
X178412196Y-121399047D01*
X178232705Y-121468582D01*
X178232700Y-121468584D01*
X178227363Y-121470652D01*
X178222491Y-121473668D01*
X178222488Y-121473670D01*
X178058830Y-121575002D01*
X178058822Y-121575007D01*
X178053959Y-121578019D01*
X178049728Y-121581875D01*
X178049724Y-121581879D01*
X177907476Y-121711554D01*
X177907466Y-121711564D01*
X177903236Y-121715421D01*
X177899787Y-121719987D01*
X177899778Y-121719998D01*
X177818954Y-121827028D01*
X177775271Y-121863301D01*
X177720000Y-121876301D01*
X177664729Y-121863301D01*
X177621046Y-121827028D01*
X177540221Y-121719998D01*
X177540217Y-121719994D01*
X177536764Y-121715421D01*
X177532527Y-121711558D01*
X177532523Y-121711554D01*
X177390275Y-121581879D01*
X177390276Y-121581879D01*
X177386041Y-121578019D01*
X177381171Y-121575004D01*
X177381169Y-121575002D01*
X177217511Y-121473670D01*
X177217512Y-121473670D01*
X177212637Y-121470652D01*
X177105061Y-121428977D01*
X177027803Y-121399047D01*
X177027798Y-121399045D01*
X177022456Y-121396976D01*
X177016818Y-121395922D01*
X176827605Y-121360552D01*
X176827602Y-121360551D01*
X176821976Y-121359500D01*
X176618024Y-121359500D01*
X176612398Y-121360551D01*
X176612394Y-121360552D01*
X176423181Y-121395922D01*
X176423178Y-121395922D01*
X176417544Y-121396976D01*
X176412203Y-121399044D01*
X176412196Y-121399047D01*
X176232705Y-121468582D01*
X176232700Y-121468584D01*
X176227363Y-121470652D01*
X176222491Y-121473668D01*
X176222488Y-121473670D01*
X176058830Y-121575002D01*
X176058822Y-121575007D01*
X176053959Y-121578019D01*
X176049728Y-121581875D01*
X176049724Y-121581879D01*
X175907476Y-121711554D01*
X175907466Y-121711564D01*
X175903236Y-121715421D01*
X175899783Y-121719993D01*
X175899778Y-121719999D01*
X175808317Y-121841113D01*
X175757985Y-121880456D01*
X175694747Y-121889522D01*
X175676986Y-121882455D01*
X175658579Y-121881175D01*
X175644889Y-121888662D01*
X175085096Y-122448456D01*
X175078431Y-122460000D01*
X175085095Y-122471542D01*
X175644890Y-123031337D01*
X175658580Y-123038825D01*
X175676963Y-123037549D01*
X175694754Y-123030473D01*
X175757987Y-123039542D01*
X175808315Y-123078883D01*
X175899778Y-123200001D01*
X175899783Y-123200006D01*
X175903236Y-123204579D01*
X175907472Y-123208440D01*
X175907476Y-123208445D01*
X176009227Y-123301203D01*
X176053959Y-123341981D01*
X176070997Y-123352530D01*
X176074297Y-123354574D01*
X176117348Y-123399662D01*
X176133018Y-123460000D01*
X176117348Y-123520338D01*
X176074297Y-123565426D01*
X176067023Y-123569930D01*
X176053959Y-123578019D01*
X176049728Y-123581875D01*
X176049724Y-123581879D01*
X175907476Y-123711554D01*
X175907466Y-123711564D01*
X175903236Y-123715421D01*
X175899787Y-123719987D01*
X175899778Y-123719998D01*
X175818954Y-123827028D01*
X175775271Y-123863301D01*
X175720000Y-123876301D01*
X175664729Y-123863301D01*
X175621046Y-123827028D01*
X175540221Y-123719998D01*
X175540217Y-123719994D01*
X175536764Y-123715421D01*
X175532527Y-123711558D01*
X175532523Y-123711554D01*
X175390275Y-123581879D01*
X175390276Y-123581879D01*
X175386041Y-123578019D01*
X175372977Y-123569930D01*
X175344902Y-123552546D01*
X175305386Y-123513409D01*
X175286952Y-123460935D01*
X175293309Y-123405682D01*
X175297230Y-123394622D01*
X175290771Y-123384324D01*
X174731542Y-122825095D01*
X174720000Y-122818431D01*
X174708456Y-122825096D01*
X174149228Y-123384323D01*
X174142768Y-123394622D01*
X174146690Y-123405682D01*
X174153047Y-123460935D01*
X174134614Y-123513408D01*
X174095099Y-123552546D01*
X174058830Y-123575003D01*
X174053959Y-123578019D01*
X174049728Y-123581875D01*
X174049724Y-123581879D01*
X173907476Y-123711554D01*
X173907466Y-123711564D01*
X173903236Y-123715421D01*
X173899787Y-123719987D01*
X173899778Y-123719998D01*
X173818954Y-123827028D01*
X173775271Y-123863301D01*
X173720000Y-123876301D01*
X173664729Y-123863301D01*
X173621046Y-123827028D01*
X173540221Y-123719998D01*
X173540217Y-123719994D01*
X173536764Y-123715421D01*
X173532527Y-123711558D01*
X173532523Y-123711554D01*
X173390275Y-123581879D01*
X173390276Y-123581879D01*
X173386041Y-123578019D01*
X173381170Y-123575003D01*
X173381169Y-123575002D01*
X173365704Y-123565427D01*
X173322652Y-123520339D01*
X173306981Y-123460000D01*
X173322652Y-123399661D01*
X173365704Y-123354573D01*
X173386041Y-123341981D01*
X173536764Y-123204579D01*
X173631682Y-123078886D01*
X173682018Y-123039541D01*
X173745262Y-123030479D01*
X173763012Y-123037543D01*
X173781418Y-123038823D01*
X173795111Y-123031334D01*
X174354904Y-122471542D01*
X174361568Y-122460000D01*
X174354904Y-122448457D01*
X173795112Y-121888665D01*
X173781417Y-121881176D01*
X173762990Y-121882459D01*
X173745263Y-121889516D01*
X173682018Y-121880455D01*
X173631679Y-121841109D01*
X173540221Y-121719998D01*
X173540217Y-121719994D01*
X173536764Y-121715421D01*
X173532527Y-121711558D01*
X173532523Y-121711554D01*
X173390275Y-121581879D01*
X173390276Y-121581879D01*
X173386041Y-121578019D01*
X173381171Y-121575004D01*
X173381169Y-121575002D01*
X173302383Y-121526220D01*
X174143298Y-121526220D01*
X174149228Y-121535675D01*
X174708457Y-122094904D01*
X174719999Y-122101568D01*
X174731542Y-122094904D01*
X175290770Y-121535675D01*
X175296700Y-121526220D01*
X175288763Y-121518374D01*
X175217287Y-121474119D01*
X175207070Y-121469031D01*
X175027666Y-121399530D01*
X175016681Y-121396405D01*
X174827559Y-121361052D01*
X174816201Y-121360000D01*
X174623799Y-121360000D01*
X174612440Y-121361052D01*
X174423318Y-121396405D01*
X174412333Y-121399530D01*
X174232927Y-121469032D01*
X174222718Y-121474115D01*
X174151233Y-121518376D01*
X174143298Y-121526220D01*
X173302383Y-121526220D01*
X173217511Y-121473670D01*
X173217512Y-121473670D01*
X173212637Y-121470652D01*
X173105061Y-121428977D01*
X173027803Y-121399047D01*
X173027798Y-121399045D01*
X173022456Y-121396976D01*
X173016818Y-121395922D01*
X172827605Y-121360552D01*
X172827602Y-121360551D01*
X172821976Y-121359500D01*
X172618024Y-121359500D01*
X172612398Y-121360551D01*
X172612394Y-121360552D01*
X172423181Y-121395922D01*
X172423178Y-121395922D01*
X172417544Y-121396976D01*
X172412203Y-121399044D01*
X172412196Y-121399047D01*
X172232705Y-121468582D01*
X172232700Y-121468584D01*
X172227363Y-121470652D01*
X172222491Y-121473668D01*
X172222488Y-121473670D01*
X172058830Y-121575002D01*
X172058822Y-121575007D01*
X172053959Y-121578019D01*
X172049728Y-121581875D01*
X172049724Y-121581879D01*
X171907476Y-121711554D01*
X171907466Y-121711564D01*
X171903236Y-121715421D01*
X171899787Y-121719987D01*
X171899778Y-121719998D01*
X171818954Y-121827028D01*
X171775271Y-121863301D01*
X171720000Y-121876301D01*
X171664729Y-121863301D01*
X171621046Y-121827028D01*
X171540221Y-121719998D01*
X171540217Y-121719994D01*
X171536764Y-121715421D01*
X171532527Y-121711558D01*
X171532523Y-121711554D01*
X171390275Y-121581879D01*
X171390276Y-121581879D01*
X171386041Y-121578019D01*
X171381171Y-121575004D01*
X171381169Y-121575002D01*
X171217511Y-121473670D01*
X171217512Y-121473670D01*
X171212637Y-121470652D01*
X171105061Y-121428977D01*
X171027803Y-121399047D01*
X171027798Y-121399045D01*
X171022456Y-121396976D01*
X171016818Y-121395922D01*
X170827605Y-121360552D01*
X170827602Y-121360551D01*
X170821976Y-121359500D01*
X170618024Y-121359500D01*
X170612398Y-121360551D01*
X170612394Y-121360552D01*
X170423181Y-121395922D01*
X170423178Y-121395922D01*
X170417544Y-121396976D01*
X170412203Y-121399044D01*
X170412196Y-121399047D01*
X170232705Y-121468582D01*
X170232700Y-121468584D01*
X170227363Y-121470652D01*
X170222491Y-121473668D01*
X170222488Y-121473670D01*
X170058830Y-121575002D01*
X170058822Y-121575007D01*
X170053959Y-121578019D01*
X170049728Y-121581875D01*
X170049724Y-121581879D01*
X169907476Y-121711554D01*
X169907466Y-121711564D01*
X169903236Y-121715421D01*
X169899783Y-121719993D01*
X169899778Y-121719999D01*
X169808317Y-121841113D01*
X169757985Y-121880456D01*
X169694747Y-121889522D01*
X169676986Y-121882455D01*
X169658579Y-121881175D01*
X169644889Y-121888662D01*
X169085096Y-122448456D01*
X169078431Y-122460000D01*
X169085095Y-122471542D01*
X169644890Y-123031337D01*
X169658580Y-123038825D01*
X169676963Y-123037549D01*
X169694754Y-123030473D01*
X169757987Y-123039542D01*
X169808315Y-123078883D01*
X169899778Y-123200001D01*
X169899783Y-123200006D01*
X169903236Y-123204579D01*
X169907472Y-123208440D01*
X169907476Y-123208445D01*
X170009227Y-123301203D01*
X170053959Y-123341981D01*
X170070997Y-123352530D01*
X170074297Y-123354574D01*
X170117348Y-123399662D01*
X170133018Y-123460000D01*
X170117348Y-123520338D01*
X170074297Y-123565426D01*
X170067023Y-123569930D01*
X170053959Y-123578019D01*
X170049728Y-123581875D01*
X170049724Y-123581879D01*
X169907476Y-123711554D01*
X169907466Y-123711564D01*
X169903236Y-123715421D01*
X169899787Y-123719987D01*
X169899778Y-123719998D01*
X169818954Y-123827028D01*
X169775271Y-123863301D01*
X169720000Y-123876301D01*
X169664729Y-123863301D01*
X169621046Y-123827028D01*
X169540221Y-123719998D01*
X169540217Y-123719994D01*
X169536764Y-123715421D01*
X169532527Y-123711558D01*
X169532523Y-123711554D01*
X169390275Y-123581879D01*
X169390276Y-123581879D01*
X169386041Y-123578019D01*
X169372977Y-123569930D01*
X169344902Y-123552546D01*
X169305386Y-123513409D01*
X169286952Y-123460935D01*
X169293309Y-123405682D01*
X169297230Y-123394622D01*
X169290771Y-123384324D01*
X168731542Y-122825095D01*
X168720000Y-122818431D01*
X168708456Y-122825096D01*
X168149228Y-123384323D01*
X168142768Y-123394622D01*
X168146690Y-123405682D01*
X168153047Y-123460935D01*
X168134614Y-123513408D01*
X168095099Y-123552546D01*
X168058830Y-123575003D01*
X168053959Y-123578019D01*
X168049728Y-123581875D01*
X168049724Y-123581879D01*
X167907476Y-123711554D01*
X167907466Y-123711564D01*
X167903236Y-123715421D01*
X167899787Y-123719987D01*
X167899778Y-123719998D01*
X167818954Y-123827028D01*
X167775271Y-123863301D01*
X167720000Y-123876301D01*
X167664729Y-123863301D01*
X167621046Y-123827028D01*
X167540221Y-123719998D01*
X167540217Y-123719994D01*
X167536764Y-123715421D01*
X167532527Y-123711558D01*
X167532523Y-123711554D01*
X167390275Y-123581879D01*
X167390276Y-123581879D01*
X167386041Y-123578019D01*
X167381170Y-123575003D01*
X167381169Y-123575002D01*
X167365704Y-123565427D01*
X167322652Y-123520339D01*
X167306981Y-123460000D01*
X167322652Y-123399661D01*
X167365704Y-123354573D01*
X167386041Y-123341981D01*
X167536764Y-123204579D01*
X167631682Y-123078886D01*
X167682018Y-123039541D01*
X167745262Y-123030479D01*
X167763012Y-123037543D01*
X167781418Y-123038823D01*
X167795111Y-123031334D01*
X168354904Y-122471542D01*
X168361568Y-122460000D01*
X168354904Y-122448457D01*
X167795112Y-121888665D01*
X167781417Y-121881176D01*
X167762990Y-121882459D01*
X167745263Y-121889516D01*
X167682018Y-121880455D01*
X167631679Y-121841109D01*
X167540221Y-121719998D01*
X167540217Y-121719994D01*
X167536764Y-121715421D01*
X167532527Y-121711558D01*
X167532523Y-121711554D01*
X167390275Y-121581879D01*
X167390276Y-121581879D01*
X167386041Y-121578019D01*
X167381171Y-121575004D01*
X167381169Y-121575002D01*
X167302383Y-121526220D01*
X168143298Y-121526220D01*
X168149228Y-121535675D01*
X168708457Y-122094904D01*
X168719999Y-122101568D01*
X168731542Y-122094904D01*
X169290770Y-121535675D01*
X169296700Y-121526220D01*
X169288763Y-121518374D01*
X169217287Y-121474119D01*
X169207070Y-121469031D01*
X169027666Y-121399530D01*
X169016681Y-121396405D01*
X168827559Y-121361052D01*
X168816201Y-121360000D01*
X168623799Y-121360000D01*
X168612440Y-121361052D01*
X168423318Y-121396405D01*
X168412333Y-121399530D01*
X168232927Y-121469032D01*
X168222718Y-121474115D01*
X168151233Y-121518376D01*
X168143298Y-121526220D01*
X167302383Y-121526220D01*
X167217511Y-121473670D01*
X167217512Y-121473670D01*
X167212637Y-121470652D01*
X167105061Y-121428977D01*
X167027803Y-121399047D01*
X167027798Y-121399045D01*
X167022456Y-121396976D01*
X167016818Y-121395922D01*
X166827605Y-121360552D01*
X166827602Y-121360551D01*
X166821976Y-121359500D01*
X166618024Y-121359500D01*
X166612398Y-121360551D01*
X166612394Y-121360552D01*
X166423181Y-121395922D01*
X166423178Y-121395922D01*
X166417544Y-121396976D01*
X166412203Y-121399044D01*
X166412196Y-121399047D01*
X166232705Y-121468582D01*
X166232700Y-121468584D01*
X166227363Y-121470652D01*
X166222491Y-121473668D01*
X166222488Y-121473670D01*
X166058830Y-121575002D01*
X166058822Y-121575007D01*
X166053959Y-121578019D01*
X166049728Y-121581875D01*
X166049724Y-121581879D01*
X165907476Y-121711554D01*
X165907466Y-121711564D01*
X165903236Y-121715421D01*
X165899787Y-121719987D01*
X165899778Y-121719998D01*
X165818954Y-121827028D01*
X165775271Y-121863301D01*
X165720000Y-121876301D01*
X165664729Y-121863301D01*
X165621046Y-121827028D01*
X165540221Y-121719998D01*
X165540217Y-121719994D01*
X165536764Y-121715421D01*
X165532527Y-121711558D01*
X165532523Y-121711554D01*
X165390275Y-121581879D01*
X165390276Y-121581879D01*
X165386041Y-121578019D01*
X165381171Y-121575004D01*
X165381169Y-121575002D01*
X165217511Y-121473670D01*
X165217512Y-121473670D01*
X165212637Y-121470652D01*
X165105061Y-121428977D01*
X165027803Y-121399047D01*
X165027798Y-121399045D01*
X165022456Y-121396976D01*
X165016818Y-121395922D01*
X164827605Y-121360552D01*
X164827602Y-121360551D01*
X164821976Y-121359500D01*
X164618024Y-121359500D01*
X164612398Y-121360551D01*
X164612394Y-121360552D01*
X164423181Y-121395922D01*
X164423178Y-121395922D01*
X164417544Y-121396976D01*
X164412203Y-121399044D01*
X164412196Y-121399047D01*
X164232705Y-121468582D01*
X164232700Y-121468584D01*
X164227363Y-121470652D01*
X164222491Y-121473668D01*
X164222488Y-121473670D01*
X164058830Y-121575002D01*
X164058822Y-121575007D01*
X164053959Y-121578019D01*
X164049728Y-121581875D01*
X164049724Y-121581879D01*
X163907476Y-121711554D01*
X163907466Y-121711564D01*
X163903236Y-121715421D01*
X163899783Y-121719993D01*
X163899778Y-121719999D01*
X163808317Y-121841113D01*
X163757985Y-121880456D01*
X163694747Y-121889522D01*
X163676986Y-121882455D01*
X163658579Y-121881175D01*
X163644889Y-121888662D01*
X162720000Y-122813553D01*
X162149228Y-123384323D01*
X162142768Y-123394622D01*
X162146690Y-123405682D01*
X162153047Y-123460935D01*
X162134614Y-123513408D01*
X162095099Y-123552546D01*
X162058830Y-123575003D01*
X162053959Y-123578019D01*
X162049728Y-123581875D01*
X162049724Y-123581879D01*
X161907476Y-123711554D01*
X161907466Y-123711564D01*
X161903236Y-123715421D01*
X161899787Y-123719987D01*
X161899778Y-123719998D01*
X161818954Y-123827028D01*
X161775271Y-123863301D01*
X161720000Y-123876301D01*
X161664729Y-123863301D01*
X161621046Y-123827028D01*
X161540221Y-123719998D01*
X161540217Y-123719994D01*
X161536764Y-123715421D01*
X161532527Y-123711558D01*
X161532523Y-123711554D01*
X161390275Y-123581879D01*
X161390276Y-123581879D01*
X161386041Y-123578019D01*
X161381170Y-123575003D01*
X161381169Y-123575002D01*
X161365704Y-123565427D01*
X161322652Y-123520339D01*
X161306981Y-123460000D01*
X161322652Y-123399661D01*
X161365704Y-123354573D01*
X161386041Y-123341981D01*
X161536764Y-123204579D01*
X161631682Y-123078886D01*
X161682018Y-123039541D01*
X161745262Y-123030479D01*
X161763012Y-123037543D01*
X161781418Y-123038823D01*
X161795111Y-123031334D01*
X162354904Y-122471542D01*
X162361568Y-122460000D01*
X162354904Y-122448457D01*
X161795112Y-121888665D01*
X161781417Y-121881176D01*
X161762990Y-121882459D01*
X161745263Y-121889516D01*
X161682018Y-121880455D01*
X161631679Y-121841109D01*
X161540221Y-121719998D01*
X161540217Y-121719994D01*
X161536764Y-121715421D01*
X161532527Y-121711558D01*
X161532523Y-121711554D01*
X161390275Y-121581879D01*
X161390276Y-121581879D01*
X161386041Y-121578019D01*
X161381171Y-121575004D01*
X161381169Y-121575002D01*
X161302383Y-121526220D01*
X162143298Y-121526220D01*
X162149228Y-121535675D01*
X162708457Y-122094904D01*
X162719999Y-122101568D01*
X162731542Y-122094904D01*
X163290770Y-121535675D01*
X163296700Y-121526220D01*
X163288763Y-121518374D01*
X163217287Y-121474119D01*
X163207070Y-121469031D01*
X163027666Y-121399530D01*
X163016681Y-121396405D01*
X162827559Y-121361052D01*
X162816201Y-121360000D01*
X162623799Y-121360000D01*
X162612440Y-121361052D01*
X162423318Y-121396405D01*
X162412333Y-121399530D01*
X162232927Y-121469032D01*
X162222718Y-121474115D01*
X162151233Y-121518376D01*
X162143298Y-121526220D01*
X161302383Y-121526220D01*
X161217511Y-121473670D01*
X161217512Y-121473670D01*
X161212637Y-121470652D01*
X161105061Y-121428977D01*
X161027803Y-121399047D01*
X161027798Y-121399045D01*
X161022456Y-121396976D01*
X161016818Y-121395922D01*
X160954738Y-121384317D01*
X160895048Y-121355024D01*
X160859072Y-121299108D01*
X160857153Y-121232646D01*
X160889840Y-121174749D01*
X166795089Y-115269500D01*
X187062140Y-115269500D01*
X187062819Y-115275960D01*
X187081246Y-115451295D01*
X187081247Y-115451303D01*
X187081926Y-115457756D01*
X187083931Y-115463928D01*
X187083933Y-115463935D01*
X187138413Y-115631605D01*
X187140421Y-115637784D01*
X187235067Y-115801716D01*
X187361729Y-115942388D01*
X187514870Y-116053651D01*
X187687797Y-116130644D01*
X187872954Y-116170000D01*
X188055743Y-116170000D01*
X188062246Y-116170000D01*
X188247403Y-116130644D01*
X188420330Y-116053651D01*
X188573471Y-115942388D01*
X188700133Y-115801716D01*
X188794779Y-115637784D01*
X188853274Y-115457756D01*
X188870921Y-115289844D01*
X188882321Y-115249425D01*
X188906558Y-115215130D01*
X199101711Y-105019978D01*
X199109881Y-105012544D01*
X199116277Y-105008486D01*
X199162318Y-104959456D01*
X199164935Y-104956754D01*
X199184520Y-104937171D01*
X199186985Y-104933992D01*
X199194567Y-104925116D01*
X199224462Y-104893282D01*
X199234113Y-104875723D01*
X199244790Y-104859470D01*
X199257073Y-104843636D01*
X199274418Y-104803552D01*
X199279551Y-104793071D01*
X199300597Y-104754792D01*
X199305579Y-104735384D01*
X199311882Y-104716976D01*
X199319837Y-104698596D01*
X199326671Y-104655444D01*
X199329033Y-104644038D01*
X199339900Y-104601719D01*
X199339900Y-104581683D01*
X199341427Y-104562285D01*
X199343339Y-104550213D01*
X199343338Y-104550213D01*
X199344560Y-104542504D01*
X199340450Y-104499024D01*
X199339900Y-104487355D01*
X199339900Y-96485187D01*
X199348136Y-96440749D01*
X199371750Y-96402215D01*
X199446933Y-96318716D01*
X199541579Y-96154784D01*
X199600074Y-95974756D01*
X199619860Y-95786500D01*
X199600074Y-95598244D01*
X199541579Y-95418216D01*
X199446933Y-95254284D01*
X199381527Y-95181644D01*
X199324620Y-95118442D01*
X199324619Y-95118441D01*
X199320271Y-95113612D01*
X199315013Y-95109792D01*
X199315011Y-95109790D01*
X199172388Y-95006169D01*
X199172387Y-95006168D01*
X199167130Y-95002349D01*
X199159258Y-94998844D01*
X199000145Y-94928001D01*
X199000140Y-94927999D01*
X198994203Y-94925356D01*
X198987844Y-94924004D01*
X198987840Y-94924003D01*
X198815408Y-94887352D01*
X198815405Y-94887351D01*
X198809046Y-94886000D01*
X198619754Y-94886000D01*
X198613395Y-94887351D01*
X198613391Y-94887352D01*
X198440959Y-94924003D01*
X198440952Y-94924005D01*
X198434597Y-94925356D01*
X198428662Y-94927998D01*
X198428654Y-94928001D01*
X198267607Y-94999705D01*
X198267602Y-94999707D01*
X198261670Y-95002349D01*
X198256416Y-95006165D01*
X198256411Y-95006169D01*
X198113788Y-95109790D01*
X198113781Y-95109795D01*
X198108529Y-95113612D01*
X198104184Y-95118437D01*
X198104179Y-95118442D01*
X197986213Y-95249456D01*
X197986208Y-95249462D01*
X197981867Y-95254284D01*
X197978622Y-95259904D01*
X197978618Y-95259910D01*
X197890469Y-95412589D01*
X197890466Y-95412594D01*
X197887221Y-95418216D01*
X197885215Y-95424388D01*
X197885213Y-95424394D01*
X197830733Y-95592064D01*
X197830731Y-95592073D01*
X197828726Y-95598244D01*
X197828048Y-95604694D01*
X197828046Y-95604704D01*
X197813200Y-95745970D01*
X197808940Y-95786500D01*
X197809619Y-95792960D01*
X197828046Y-95968295D01*
X197828047Y-95968303D01*
X197828726Y-95974756D01*
X197830731Y-95980928D01*
X197830733Y-95980935D01*
X197885213Y-96148605D01*
X197887221Y-96154784D01*
X197981867Y-96318716D01*
X197986211Y-96323541D01*
X197986213Y-96323543D01*
X198057050Y-96402215D01*
X198080664Y-96440749D01*
X198088900Y-96485187D01*
X198088900Y-104212247D01*
X198079461Y-104259700D01*
X198052581Y-104299928D01*
X188019828Y-114332681D01*
X187979600Y-114359561D01*
X187932147Y-114369000D01*
X187872954Y-114369000D01*
X187866595Y-114370351D01*
X187866591Y-114370352D01*
X187694159Y-114407003D01*
X187694152Y-114407005D01*
X187687797Y-114408356D01*
X187681862Y-114410998D01*
X187681854Y-114411001D01*
X187520807Y-114482705D01*
X187520802Y-114482707D01*
X187514870Y-114485349D01*
X187509616Y-114489165D01*
X187509611Y-114489169D01*
X187366988Y-114592790D01*
X187366981Y-114592795D01*
X187361729Y-114596612D01*
X187357384Y-114601437D01*
X187357379Y-114601442D01*
X187239413Y-114732456D01*
X187239408Y-114732462D01*
X187235067Y-114737284D01*
X187231822Y-114742904D01*
X187231818Y-114742910D01*
X187143669Y-114895589D01*
X187143666Y-114895594D01*
X187140421Y-114901216D01*
X187138415Y-114907388D01*
X187138413Y-114907394D01*
X187083933Y-115075064D01*
X187083931Y-115075073D01*
X187081926Y-115081244D01*
X187081248Y-115087694D01*
X187081246Y-115087704D01*
X187064250Y-115249425D01*
X187062140Y-115269500D01*
X166795089Y-115269500D01*
X169603911Y-112460678D01*
X169612081Y-112453244D01*
X169618477Y-112449186D01*
X169664518Y-112400156D01*
X169667135Y-112397454D01*
X169686720Y-112377871D01*
X169689185Y-112374692D01*
X169696767Y-112365816D01*
X169726662Y-112333982D01*
X169736313Y-112316423D01*
X169746990Y-112300170D01*
X169759273Y-112284336D01*
X169776618Y-112244252D01*
X169781751Y-112233771D01*
X169802797Y-112195492D01*
X169807779Y-112176084D01*
X169814082Y-112157676D01*
X169822037Y-112139296D01*
X169828871Y-112096144D01*
X169831233Y-112084738D01*
X169842100Y-112042419D01*
X169842100Y-112022383D01*
X169843627Y-112002985D01*
X169845539Y-111990913D01*
X169845538Y-111990913D01*
X169846760Y-111983204D01*
X169842650Y-111939724D01*
X169842100Y-111928055D01*
X169842100Y-96068587D01*
X169850336Y-96024149D01*
X169873950Y-95985615D01*
X169880705Y-95978113D01*
X169949133Y-95902116D01*
X170043779Y-95738184D01*
X170102274Y-95558156D01*
X170122060Y-95369900D01*
X170102274Y-95181644D01*
X170043779Y-95001616D01*
X169949133Y-94837684D01*
X169822471Y-94697012D01*
X169817213Y-94693192D01*
X169817211Y-94693190D01*
X169674588Y-94589569D01*
X169674587Y-94589568D01*
X169669330Y-94585749D01*
X169663392Y-94583105D01*
X169502345Y-94511401D01*
X169502340Y-94511399D01*
X169496403Y-94508756D01*
X169490044Y-94507404D01*
X169490040Y-94507403D01*
X169317608Y-94470752D01*
X169317605Y-94470751D01*
X169311246Y-94469400D01*
X169121954Y-94469400D01*
X169115595Y-94470751D01*
X169115591Y-94470752D01*
X168943159Y-94507403D01*
X168943152Y-94507405D01*
X168936797Y-94508756D01*
X168930862Y-94511398D01*
X168930854Y-94511401D01*
X168769807Y-94583105D01*
X168769802Y-94583107D01*
X168763870Y-94585749D01*
X168758616Y-94589565D01*
X168758611Y-94589569D01*
X168615988Y-94693190D01*
X168615981Y-94693195D01*
X168610729Y-94697012D01*
X168606384Y-94701837D01*
X168606379Y-94701842D01*
X168488413Y-94832856D01*
X168488408Y-94832862D01*
X168484067Y-94837684D01*
X168480822Y-94843304D01*
X168480818Y-94843310D01*
X168392669Y-94995989D01*
X168392666Y-94995994D01*
X168389421Y-95001616D01*
X168387415Y-95007788D01*
X168387413Y-95007794D01*
X168332933Y-95175464D01*
X168332931Y-95175473D01*
X168330926Y-95181644D01*
X168330248Y-95188094D01*
X168330246Y-95188104D01*
X168323291Y-95254284D01*
X168311140Y-95369900D01*
X168311819Y-95376360D01*
X168330246Y-95551695D01*
X168330247Y-95551703D01*
X168330926Y-95558156D01*
X168332931Y-95564328D01*
X168332933Y-95564335D01*
X168387413Y-95732005D01*
X168389421Y-95738184D01*
X168392668Y-95743808D01*
X168392669Y-95743810D01*
X168478279Y-95892092D01*
X168484067Y-95902116D01*
X168488411Y-95906941D01*
X168488413Y-95906943D01*
X168559250Y-95985615D01*
X168582864Y-96024149D01*
X168591100Y-96068587D01*
X168591100Y-111652948D01*
X168581661Y-111700401D01*
X168554781Y-111740629D01*
X158964182Y-121331225D01*
X158913182Y-121361995D01*
X158853718Y-121365433D01*
X158827610Y-121360552D01*
X158827597Y-121360550D01*
X158821976Y-121359500D01*
X158618024Y-121359500D01*
X158612398Y-121360551D01*
X158612394Y-121360552D01*
X158423181Y-121395922D01*
X158423178Y-121395922D01*
X158417544Y-121396976D01*
X158412203Y-121399044D01*
X158412196Y-121399047D01*
X158232705Y-121468582D01*
X158232700Y-121468584D01*
X158227363Y-121470652D01*
X158222491Y-121473668D01*
X158222488Y-121473670D01*
X158058830Y-121575002D01*
X158058822Y-121575007D01*
X158053959Y-121578019D01*
X158049728Y-121581875D01*
X158049724Y-121581879D01*
X157907476Y-121711554D01*
X157907466Y-121711564D01*
X157903236Y-121715421D01*
X157899783Y-121719993D01*
X157899778Y-121719999D01*
X157808317Y-121841113D01*
X157757985Y-121880456D01*
X157694747Y-121889522D01*
X157676986Y-121882455D01*
X157658579Y-121881175D01*
X157644889Y-121888662D01*
X157085096Y-122448456D01*
X157078431Y-122460000D01*
X157085095Y-122471542D01*
X157644890Y-123031337D01*
X157658580Y-123038825D01*
X157676963Y-123037549D01*
X157694754Y-123030473D01*
X157757987Y-123039542D01*
X157808315Y-123078883D01*
X157899778Y-123200001D01*
X157899783Y-123200006D01*
X157903236Y-123204579D01*
X157907472Y-123208440D01*
X157907476Y-123208445D01*
X158009227Y-123301203D01*
X158053959Y-123341981D01*
X158070997Y-123352530D01*
X158074297Y-123354574D01*
X158117348Y-123399662D01*
X158133018Y-123460000D01*
X158117348Y-123520338D01*
X158074297Y-123565426D01*
X158067023Y-123569930D01*
X158053959Y-123578019D01*
X158049728Y-123581875D01*
X158049724Y-123581879D01*
X157907476Y-123711554D01*
X157907466Y-123711564D01*
X157903236Y-123715421D01*
X157899787Y-123719987D01*
X157899778Y-123719998D01*
X157818954Y-123827028D01*
X157775271Y-123863301D01*
X157720000Y-123876301D01*
X157664729Y-123863301D01*
X157621046Y-123827028D01*
X157540221Y-123719998D01*
X157540217Y-123719994D01*
X157536764Y-123715421D01*
X157532527Y-123711558D01*
X157532523Y-123711554D01*
X157390275Y-123581879D01*
X157390276Y-123581879D01*
X157386041Y-123578019D01*
X157372977Y-123569930D01*
X157344902Y-123552546D01*
X157305386Y-123513409D01*
X157286952Y-123460935D01*
X157293309Y-123405682D01*
X157297230Y-123394622D01*
X157290771Y-123384324D01*
X156731542Y-122825095D01*
X156720000Y-122818431D01*
X156708456Y-122825096D01*
X156149228Y-123384323D01*
X156142768Y-123394622D01*
X156146690Y-123405682D01*
X156153047Y-123460935D01*
X156134614Y-123513408D01*
X156095099Y-123552546D01*
X156058830Y-123575003D01*
X156053959Y-123578019D01*
X156049728Y-123581875D01*
X156049724Y-123581879D01*
X155907476Y-123711554D01*
X155907466Y-123711564D01*
X155903236Y-123715421D01*
X155899787Y-123719987D01*
X155899778Y-123719998D01*
X155818954Y-123827028D01*
X155775271Y-123863301D01*
X155720000Y-123876301D01*
X155664729Y-123863301D01*
X155621046Y-123827028D01*
X155540221Y-123719998D01*
X155540217Y-123719994D01*
X155536764Y-123715421D01*
X155532527Y-123711558D01*
X155532523Y-123711554D01*
X155454495Y-123640423D01*
X155422387Y-123593530D01*
X155414572Y-123537238D01*
X155432691Y-123483372D01*
X155472935Y-123443248D01*
X155538656Y-123402712D01*
X155662712Y-123278656D01*
X155754814Y-123129334D01*
X155774168Y-123070927D01*
X155804190Y-123022255D01*
X156354904Y-122471542D01*
X156361568Y-122460000D01*
X156354904Y-122448457D01*
X155804191Y-121897744D01*
X155774166Y-121849067D01*
X155771530Y-121841113D01*
X155754814Y-121790666D01*
X155662712Y-121641344D01*
X155547588Y-121526220D01*
X156143298Y-121526220D01*
X156149228Y-121535675D01*
X156708457Y-122094904D01*
X156719999Y-122101568D01*
X156731542Y-122094904D01*
X157290770Y-121535675D01*
X157296700Y-121526220D01*
X157288763Y-121518374D01*
X157217287Y-121474119D01*
X157207070Y-121469031D01*
X157027666Y-121399530D01*
X157016681Y-121396405D01*
X156827559Y-121361052D01*
X156816201Y-121360000D01*
X156623799Y-121360000D01*
X156612440Y-121361052D01*
X156423318Y-121396405D01*
X156412333Y-121399530D01*
X156232927Y-121469032D01*
X156222718Y-121474115D01*
X156151233Y-121518376D01*
X156143298Y-121526220D01*
X155547588Y-121526220D01*
X155538656Y-121517288D01*
X155532515Y-121513500D01*
X155532511Y-121513497D01*
X155395480Y-121428977D01*
X155389334Y-121425186D01*
X155311909Y-121399530D01*
X155229225Y-121372131D01*
X155229224Y-121372130D01*
X155222797Y-121370001D01*
X155216064Y-121369313D01*
X155216059Y-121369312D01*
X155123140Y-121359819D01*
X155123123Y-121359818D01*
X155120009Y-121359500D01*
X155116860Y-121359500D01*
X154323141Y-121359500D01*
X154323121Y-121359500D01*
X154319992Y-121359501D01*
X154316860Y-121359820D01*
X154316858Y-121359821D01*
X154223938Y-121369312D01*
X154223928Y-121369313D01*
X154217203Y-121370001D01*
X154210781Y-121372128D01*
X154210776Y-121372130D01*
X154057521Y-121422914D01*
X154057517Y-121422915D01*
X154050666Y-121425186D01*
X154044522Y-121428975D01*
X154044519Y-121428977D01*
X153907488Y-121513497D01*
X153907480Y-121513503D01*
X153901344Y-121517288D01*
X153896242Y-121522389D01*
X153896238Y-121522393D01*
X153782393Y-121636238D01*
X153782389Y-121636242D01*
X153777288Y-121641344D01*
X153773503Y-121647480D01*
X153773497Y-121647488D01*
X153728773Y-121719999D01*
X153685186Y-121790666D01*
X153682915Y-121797517D01*
X153682914Y-121797521D01*
X153632131Y-121950774D01*
X153630001Y-121957203D01*
X153629313Y-121963933D01*
X153629312Y-121963940D01*
X153619819Y-122056859D01*
X153619818Y-122056877D01*
X153619500Y-122059991D01*
X153619500Y-122063140D01*
X153619500Y-122175547D01*
X153605985Y-122231842D01*
X153568385Y-122275865D01*
X153514898Y-122298020D01*
X153457182Y-122293478D01*
X153407819Y-122263228D01*
X142901819Y-111757228D01*
X142874939Y-111717000D01*
X142865500Y-111669547D01*
X142865500Y-92390000D01*
X156662940Y-92390000D01*
X156663619Y-92396460D01*
X156682046Y-92571795D01*
X156682047Y-92571803D01*
X156682726Y-92578256D01*
X156684731Y-92584428D01*
X156684733Y-92584435D01*
X156729402Y-92721910D01*
X156741221Y-92758284D01*
X156744468Y-92763908D01*
X156744469Y-92763910D01*
X156829527Y-92911236D01*
X156835867Y-92922216D01*
X156962529Y-93062888D01*
X156967787Y-93066708D01*
X156967788Y-93066709D01*
X156987254Y-93080852D01*
X157115670Y-93174151D01*
X157288597Y-93251144D01*
X157473754Y-93290500D01*
X157532948Y-93290500D01*
X157580401Y-93299939D01*
X157620629Y-93326819D01*
X166070981Y-101777171D01*
X166097861Y-101817399D01*
X166107300Y-101864852D01*
X166107300Y-110026813D01*
X166099064Y-110071251D01*
X166075450Y-110109785D01*
X166004613Y-110188456D01*
X166004608Y-110188462D01*
X166000267Y-110193284D01*
X165997022Y-110198904D01*
X165997018Y-110198910D01*
X165908869Y-110351589D01*
X165908866Y-110351594D01*
X165905621Y-110357216D01*
X165903615Y-110363388D01*
X165903613Y-110363394D01*
X165849133Y-110531064D01*
X165849131Y-110531073D01*
X165847126Y-110537244D01*
X165846448Y-110543694D01*
X165846446Y-110543704D01*
X165828762Y-110711964D01*
X165827340Y-110725500D01*
X165828019Y-110731960D01*
X165846446Y-110907295D01*
X165846447Y-110907303D01*
X165847126Y-110913756D01*
X165849131Y-110919928D01*
X165849133Y-110919935D01*
X165903613Y-111087605D01*
X165905621Y-111093784D01*
X166000267Y-111257716D01*
X166126929Y-111398388D01*
X166280070Y-111509651D01*
X166452997Y-111586644D01*
X166638154Y-111626000D01*
X166820943Y-111626000D01*
X166827446Y-111626000D01*
X167012603Y-111586644D01*
X167185530Y-111509651D01*
X167338671Y-111398388D01*
X167465333Y-111257716D01*
X167559979Y-111093784D01*
X167618474Y-110913756D01*
X167638260Y-110725500D01*
X167618474Y-110537244D01*
X167559979Y-110357216D01*
X167465333Y-110193284D01*
X167390149Y-110109784D01*
X167366536Y-110071251D01*
X167358300Y-110026813D01*
X167358300Y-101632175D01*
X167358821Y-101621119D01*
X167360473Y-101613733D01*
X167358361Y-101546513D01*
X167358300Y-101542619D01*
X167358300Y-101518942D01*
X167358300Y-101515050D01*
X167357798Y-101511083D01*
X167356881Y-101499426D01*
X167355510Y-101455773D01*
X167349918Y-101436528D01*
X167345974Y-101417483D01*
X167343464Y-101397608D01*
X167327379Y-101356983D01*
X167323606Y-101345962D01*
X167311418Y-101304010D01*
X167301217Y-101286760D01*
X167292663Y-101269301D01*
X167285286Y-101250668D01*
X167259608Y-101215325D01*
X167253201Y-101205571D01*
X167234942Y-101174696D01*
X167234941Y-101174694D01*
X167230970Y-101167980D01*
X167216804Y-101153814D01*
X167204170Y-101139022D01*
X167192394Y-101122813D01*
X167186383Y-101117840D01*
X167186381Y-101117838D01*
X167158741Y-101094973D01*
X167150100Y-101087110D01*
X160042991Y-93980000D01*
X173592940Y-93980000D01*
X173593619Y-93986460D01*
X173612046Y-94161795D01*
X173612047Y-94161803D01*
X173612726Y-94168256D01*
X173614731Y-94174428D01*
X173614733Y-94174435D01*
X173669213Y-94342105D01*
X173671221Y-94348284D01*
X173674468Y-94353908D01*
X173674469Y-94353910D01*
X173746210Y-94478170D01*
X173765867Y-94512216D01*
X173770211Y-94517041D01*
X173770213Y-94517043D01*
X173851817Y-94607673D01*
X173892529Y-94652888D01*
X174045670Y-94764151D01*
X174218597Y-94841144D01*
X174403754Y-94880500D01*
X174586543Y-94880500D01*
X174593046Y-94880500D01*
X174778203Y-94841144D01*
X174951130Y-94764151D01*
X175104271Y-94652888D01*
X175110001Y-94646523D01*
X175111671Y-94645310D01*
X175113450Y-94643709D01*
X175113618Y-94643895D01*
X175151715Y-94616219D01*
X175202148Y-94605500D01*
X176747825Y-94605500D01*
X176758880Y-94606021D01*
X176766267Y-94607673D01*
X176833472Y-94605561D01*
X176837368Y-94605500D01*
X176861048Y-94605500D01*
X176864950Y-94605500D01*
X176868913Y-94604999D01*
X176880563Y-94604080D01*
X176924227Y-94602709D01*
X176943461Y-94597119D01*
X176962517Y-94593174D01*
X176982392Y-94590664D01*
X177022995Y-94574587D01*
X177034050Y-94570802D01*
X177075990Y-94558618D01*
X177093229Y-94548422D01*
X177110703Y-94539862D01*
X177122074Y-94535360D01*
X177122076Y-94535358D01*
X177129332Y-94532486D01*
X177164669Y-94506811D01*
X177174424Y-94500403D01*
X177212020Y-94478170D01*
X177226184Y-94464005D01*
X177240979Y-94451368D01*
X177257187Y-94439594D01*
X177285028Y-94405938D01*
X177292879Y-94397309D01*
X180181271Y-91508919D01*
X180221500Y-91482039D01*
X180268953Y-91472600D01*
X180321643Y-91472600D01*
X180328146Y-91472600D01*
X180513303Y-91433244D01*
X180686230Y-91356251D01*
X180839371Y-91244988D01*
X180966033Y-91104316D01*
X181060679Y-90940384D01*
X181119174Y-90760356D01*
X181138960Y-90572100D01*
X181119174Y-90383844D01*
X181060679Y-90203816D01*
X180966033Y-90039884D01*
X180839371Y-89899212D01*
X180834113Y-89895392D01*
X180834111Y-89895390D01*
X180691488Y-89791769D01*
X180691487Y-89791768D01*
X180686230Y-89787949D01*
X180680292Y-89785305D01*
X180519245Y-89713601D01*
X180519240Y-89713599D01*
X180513303Y-89710956D01*
X180506944Y-89709604D01*
X180506940Y-89709603D01*
X180334508Y-89672952D01*
X180334505Y-89672951D01*
X180328146Y-89671600D01*
X180138854Y-89671600D01*
X180132495Y-89672951D01*
X180132491Y-89672952D01*
X179960059Y-89709603D01*
X179960052Y-89709605D01*
X179953697Y-89710956D01*
X179947762Y-89713598D01*
X179947754Y-89713601D01*
X179786707Y-89785305D01*
X179786702Y-89785307D01*
X179780770Y-89787949D01*
X179775516Y-89791765D01*
X179775511Y-89791769D01*
X179632888Y-89895390D01*
X179632881Y-89895395D01*
X179627629Y-89899212D01*
X179623284Y-89904037D01*
X179623279Y-89904042D01*
X179505313Y-90035056D01*
X179505308Y-90035062D01*
X179500967Y-90039884D01*
X179497722Y-90045504D01*
X179497718Y-90045510D01*
X179409569Y-90198189D01*
X179409566Y-90198194D01*
X179406321Y-90203816D01*
X179404315Y-90209988D01*
X179404313Y-90209994D01*
X179349833Y-90377664D01*
X179349831Y-90377673D01*
X179347826Y-90383844D01*
X179347147Y-90390303D01*
X179347147Y-90390304D01*
X179330178Y-90551750D01*
X179318778Y-90592172D01*
X179294538Y-90626469D01*
X176602828Y-93318181D01*
X176562600Y-93345061D01*
X176515147Y-93354500D01*
X175202148Y-93354500D01*
X175151715Y-93343781D01*
X175113618Y-93316104D01*
X175113450Y-93316291D01*
X175111671Y-93314689D01*
X175110001Y-93313476D01*
X175104271Y-93307112D01*
X175099013Y-93303292D01*
X175099011Y-93303290D01*
X174956388Y-93199669D01*
X174956387Y-93199668D01*
X174951130Y-93195849D01*
X174945192Y-93193205D01*
X174784145Y-93121501D01*
X174784140Y-93121499D01*
X174778203Y-93118856D01*
X174771844Y-93117504D01*
X174771840Y-93117503D01*
X174599408Y-93080852D01*
X174599405Y-93080851D01*
X174593046Y-93079500D01*
X174403754Y-93079500D01*
X174397395Y-93080851D01*
X174397391Y-93080852D01*
X174224959Y-93117503D01*
X174224952Y-93117505D01*
X174218597Y-93118856D01*
X174212662Y-93121498D01*
X174212654Y-93121501D01*
X174051607Y-93193205D01*
X174051602Y-93193207D01*
X174045670Y-93195849D01*
X174040416Y-93199665D01*
X174040411Y-93199669D01*
X173897788Y-93303290D01*
X173897781Y-93303295D01*
X173892529Y-93307112D01*
X173888184Y-93311937D01*
X173888179Y-93311942D01*
X173770213Y-93442956D01*
X173770208Y-93442962D01*
X173765867Y-93447784D01*
X173762622Y-93453404D01*
X173762618Y-93453410D01*
X173674469Y-93606089D01*
X173674466Y-93606094D01*
X173671221Y-93611716D01*
X173669215Y-93617888D01*
X173669213Y-93617894D01*
X173614733Y-93785564D01*
X173614731Y-93785573D01*
X173612726Y-93791744D01*
X173612048Y-93798194D01*
X173612046Y-93798204D01*
X173594362Y-93966464D01*
X173592940Y-93980000D01*
X160042991Y-93980000D01*
X158507361Y-92444370D01*
X158483121Y-92410072D01*
X158471721Y-92369650D01*
X158454753Y-92208204D01*
X158454752Y-92208203D01*
X158454074Y-92201744D01*
X158395579Y-92021716D01*
X158300933Y-91857784D01*
X158174271Y-91717112D01*
X158169013Y-91713292D01*
X158169011Y-91713290D01*
X158026388Y-91609669D01*
X158026387Y-91609668D01*
X158021130Y-91605849D01*
X158015192Y-91603205D01*
X157854145Y-91531501D01*
X157854140Y-91531499D01*
X157848203Y-91528856D01*
X157841844Y-91527504D01*
X157841840Y-91527503D01*
X157669408Y-91490852D01*
X157669405Y-91490851D01*
X157663046Y-91489500D01*
X157473754Y-91489500D01*
X157467395Y-91490851D01*
X157467391Y-91490852D01*
X157294959Y-91527503D01*
X157294952Y-91527505D01*
X157288597Y-91528856D01*
X157282662Y-91531498D01*
X157282654Y-91531501D01*
X157121607Y-91603205D01*
X157121602Y-91603207D01*
X157115670Y-91605849D01*
X157110416Y-91609665D01*
X157110411Y-91609669D01*
X156967788Y-91713290D01*
X156967781Y-91713295D01*
X156962529Y-91717112D01*
X156958184Y-91721937D01*
X156958179Y-91721942D01*
X156840213Y-91852956D01*
X156840208Y-91852962D01*
X156835867Y-91857784D01*
X156832622Y-91863404D01*
X156832618Y-91863410D01*
X156744469Y-92016089D01*
X156744466Y-92016094D01*
X156741221Y-92021716D01*
X156739215Y-92027888D01*
X156739213Y-92027894D01*
X156684733Y-92195564D01*
X156684731Y-92195573D01*
X156682726Y-92201744D01*
X156682048Y-92208194D01*
X156682046Y-92208204D01*
X156665079Y-92369650D01*
X156662940Y-92390000D01*
X142865500Y-92390000D01*
X142865500Y-85261559D01*
X142882977Y-85198085D01*
X142930483Y-85152504D01*
X142955327Y-85139059D01*
X143063535Y-85080500D01*
X143259770Y-84927764D01*
X143428190Y-84744811D01*
X143564199Y-84536633D01*
X143664089Y-84308907D01*
X143725134Y-84067847D01*
X143745669Y-83820026D01*
X143725134Y-83572205D01*
X143671151Y-83359032D01*
X143671806Y-83295675D01*
X143703674Y-83240914D01*
X144145837Y-82798751D01*
X149198649Y-82798751D01*
X149199073Y-82803868D01*
X149217390Y-83024937D01*
X149217391Y-83024946D01*
X149217815Y-83030056D01*
X149219072Y-83035023D01*
X149219074Y-83035030D01*
X149271211Y-83240912D01*
X149274792Y-83255051D01*
X149292611Y-83295675D01*
X149365965Y-83462905D01*
X149365968Y-83462910D01*
X149368025Y-83467600D01*
X149421761Y-83549849D01*
X149492168Y-83657616D01*
X149492171Y-83657620D01*
X149494970Y-83661904D01*
X149652165Y-83832664D01*
X149835323Y-83975221D01*
X150039446Y-84085687D01*
X150258968Y-84161049D01*
X150487900Y-84199251D01*
X150714865Y-84199251D01*
X150719998Y-84199251D01*
X150948930Y-84161049D01*
X151168452Y-84085687D01*
X151372575Y-83975221D01*
X151555733Y-83832664D01*
X151712928Y-83661904D01*
X151839873Y-83467600D01*
X151933106Y-83255051D01*
X151990083Y-83030056D01*
X152006772Y-82828641D01*
X152025406Y-82772831D01*
X152067675Y-82731890D01*
X152124059Y-82715047D01*
X152181859Y-82726093D01*
X152257543Y-82760657D01*
X152400000Y-82781139D01*
X152542457Y-82760657D01*
X152673373Y-82700869D01*
X152720056Y-82663250D01*
X154060549Y-81322756D01*
X154098169Y-81276073D01*
X154157957Y-81145157D01*
X154178439Y-81002700D01*
X154157957Y-80860243D01*
X154098169Y-80729327D01*
X154060550Y-80682644D01*
X152720056Y-79342151D01*
X152717464Y-79340062D01*
X152679411Y-79309396D01*
X152679406Y-79309393D01*
X152673373Y-79304531D01*
X152595613Y-79269019D01*
X152550526Y-79248428D01*
X152550525Y-79248427D01*
X152542457Y-79244743D01*
X152533681Y-79243481D01*
X152533677Y-79243480D01*
X152408777Y-79225523D01*
X152400000Y-79224261D01*
X152391223Y-79225523D01*
X152266322Y-79243480D01*
X152266316Y-79243481D01*
X152257543Y-79244743D01*
X152249475Y-79248427D01*
X152249473Y-79248428D01*
X152133685Y-79301307D01*
X152133680Y-79301309D01*
X152126627Y-79304531D01*
X152120590Y-79309396D01*
X152120584Y-79309400D01*
X152082534Y-79340062D01*
X152082524Y-79340070D01*
X152079944Y-79342150D01*
X152077600Y-79344493D01*
X152077591Y-79344502D01*
X150741807Y-80680287D01*
X150741798Y-80680296D01*
X150739451Y-80682644D01*
X150737371Y-80685224D01*
X150737362Y-80685235D01*
X150706696Y-80723288D01*
X150706690Y-80723296D01*
X150701831Y-80729327D01*
X150698610Y-80736377D01*
X150698609Y-80736381D01*
X150645728Y-80852173D01*
X150642043Y-80860243D01*
X150640781Y-80869016D01*
X150640780Y-80869022D01*
X150633450Y-80920006D01*
X150621561Y-81002700D01*
X150622823Y-81011477D01*
X150640780Y-81136377D01*
X150640781Y-81136381D01*
X150642043Y-81145157D01*
X150645728Y-81153225D01*
X150677474Y-81222739D01*
X150688364Y-81283097D01*
X150668996Y-81341290D01*
X150624107Y-81383083D01*
X150564680Y-81398251D01*
X150487900Y-81398251D01*
X150482847Y-81399094D01*
X150482837Y-81399095D01*
X150264026Y-81435608D01*
X150264014Y-81435610D01*
X150258968Y-81436453D01*
X150254118Y-81438117D01*
X150254114Y-81438119D01*
X150044294Y-81510150D01*
X150044286Y-81510153D01*
X150039446Y-81511815D01*
X150034950Y-81514247D01*
X150034941Y-81514252D01*
X149839831Y-81619841D01*
X149839827Y-81619843D01*
X149835323Y-81622281D01*
X149831283Y-81625425D01*
X149831276Y-81625430D01*
X149656212Y-81761687D01*
X149656204Y-81761694D01*
X149652165Y-81764838D01*
X149648695Y-81768606D01*
X149648691Y-81768611D01*
X149498440Y-81931828D01*
X149498437Y-81931831D01*
X149494970Y-81935598D01*
X149492175Y-81939875D01*
X149492168Y-81939885D01*
X149399138Y-82082280D01*
X149368025Y-82129902D01*
X149365970Y-82134586D01*
X149365965Y-82134596D01*
X149284477Y-82320371D01*
X149274792Y-82342451D01*
X149273534Y-82347416D01*
X149273533Y-82347421D01*
X149219074Y-82562471D01*
X149219072Y-82562480D01*
X149217815Y-82567446D01*
X149217391Y-82572553D01*
X149217390Y-82572564D01*
X149205505Y-82716006D01*
X149198649Y-82798751D01*
X144145837Y-82798751D01*
X148809589Y-78135000D01*
X157349700Y-78135000D01*
X157350124Y-78140117D01*
X157368441Y-78361186D01*
X157368442Y-78361195D01*
X157368866Y-78366305D01*
X157370123Y-78371272D01*
X157370125Y-78371279D01*
X157424584Y-78586329D01*
X157425843Y-78591300D01*
X157427903Y-78595996D01*
X157517016Y-78799154D01*
X157517019Y-78799159D01*
X157519076Y-78803849D01*
X157582548Y-78901001D01*
X157643219Y-78993865D01*
X157643222Y-78993869D01*
X157646021Y-78998153D01*
X157803216Y-79168913D01*
X157986374Y-79311470D01*
X158190497Y-79421936D01*
X158410019Y-79497298D01*
X158638951Y-79535500D01*
X158865916Y-79535500D01*
X158871049Y-79535500D01*
X159099981Y-79497298D01*
X159319503Y-79421936D01*
X159523626Y-79311470D01*
X159706784Y-79168913D01*
X159715130Y-79159846D01*
X159767754Y-79125990D01*
X159830210Y-79122141D01*
X159886592Y-79149278D01*
X159922545Y-79200493D01*
X159951204Y-79277331D01*
X159956518Y-79284430D01*
X159956519Y-79284431D01*
X160007040Y-79351919D01*
X160037454Y-79392546D01*
X160152669Y-79478796D01*
X160287517Y-79529091D01*
X160347127Y-79535500D01*
X162242872Y-79535499D01*
X162302483Y-79529091D01*
X162437331Y-79478796D01*
X162552546Y-79392546D01*
X162638796Y-79277331D01*
X162689091Y-79142483D01*
X162695500Y-79082873D01*
X162695499Y-77187128D01*
X162689091Y-77127517D01*
X162638796Y-76992669D01*
X162552546Y-76877454D01*
X162516541Y-76850501D01*
X162444431Y-76796519D01*
X162444430Y-76796518D01*
X162437331Y-76791204D01*
X162302483Y-76740909D01*
X162294770Y-76740079D01*
X162294767Y-76740079D01*
X162246180Y-76734855D01*
X162246169Y-76734854D01*
X162242873Y-76734500D01*
X162239550Y-76734500D01*
X160350439Y-76734500D01*
X160350420Y-76734500D01*
X160347128Y-76734501D01*
X160343850Y-76734853D01*
X160343838Y-76734854D01*
X160295231Y-76740079D01*
X160295225Y-76740080D01*
X160287517Y-76740909D01*
X160280252Y-76743618D01*
X160280246Y-76743620D01*
X160160980Y-76788104D01*
X160160978Y-76788104D01*
X160152669Y-76791204D01*
X160145572Y-76796516D01*
X160145568Y-76796519D01*
X160044550Y-76872141D01*
X160044546Y-76872144D01*
X160037454Y-76877454D01*
X160032144Y-76884546D01*
X160032141Y-76884550D01*
X159956519Y-76985568D01*
X159956516Y-76985572D01*
X159951204Y-76992669D01*
X159948104Y-77000978D01*
X159948105Y-77000978D01*
X159922545Y-77069507D01*
X159886593Y-77120720D01*
X159830213Y-77147858D01*
X159767759Y-77144011D01*
X159715135Y-77110158D01*
X159710259Y-77104862D01*
X159710257Y-77104860D01*
X159706784Y-77101087D01*
X159650783Y-77057500D01*
X159527672Y-76961679D01*
X159527671Y-76961678D01*
X159523626Y-76958530D01*
X159469497Y-76929237D01*
X159324007Y-76850501D01*
X159324002Y-76850499D01*
X159319503Y-76848064D01*
X159314657Y-76846400D01*
X159314654Y-76846399D01*
X159104834Y-76774368D01*
X159104833Y-76774367D01*
X159099981Y-76772702D01*
X159094931Y-76771859D01*
X159094922Y-76771857D01*
X158876111Y-76735344D01*
X158876102Y-76735343D01*
X158871049Y-76734500D01*
X158638951Y-76734500D01*
X158633898Y-76735343D01*
X158633888Y-76735344D01*
X158415077Y-76771857D01*
X158415065Y-76771859D01*
X158410019Y-76772702D01*
X158405169Y-76774366D01*
X158405165Y-76774368D01*
X158195345Y-76846399D01*
X158195337Y-76846402D01*
X158190497Y-76848064D01*
X158186001Y-76850496D01*
X158185992Y-76850501D01*
X157990882Y-76956090D01*
X157990878Y-76956092D01*
X157986374Y-76958530D01*
X157982334Y-76961674D01*
X157982327Y-76961679D01*
X157807263Y-77097936D01*
X157807255Y-77097943D01*
X157803216Y-77101087D01*
X157799746Y-77104855D01*
X157799742Y-77104860D01*
X157649491Y-77268077D01*
X157649488Y-77268080D01*
X157646021Y-77271847D01*
X157643226Y-77276124D01*
X157643219Y-77276134D01*
X157568218Y-77390933D01*
X157519076Y-77466151D01*
X157517021Y-77470835D01*
X157517016Y-77470845D01*
X157427903Y-77674003D01*
X157425843Y-77678700D01*
X157424585Y-77683665D01*
X157424584Y-77683670D01*
X157370125Y-77898720D01*
X157370123Y-77898729D01*
X157368866Y-77903695D01*
X157368442Y-77908802D01*
X157368441Y-77908813D01*
X157350200Y-78128955D01*
X157349700Y-78135000D01*
X148809589Y-78135000D01*
X151349589Y-75595000D01*
X172589700Y-75595000D01*
X172590124Y-75600117D01*
X172608441Y-75821186D01*
X172608442Y-75821195D01*
X172608866Y-75826305D01*
X172610123Y-75831272D01*
X172610125Y-75831279D01*
X172636385Y-75934976D01*
X172665843Y-76051300D01*
X172667903Y-76055996D01*
X172757016Y-76259154D01*
X172757019Y-76259159D01*
X172759076Y-76263849D01*
X172822548Y-76361000D01*
X172883219Y-76453865D01*
X172883222Y-76453869D01*
X172886021Y-76458153D01*
X173043216Y-76628913D01*
X173226374Y-76771470D01*
X173430497Y-76881936D01*
X173650019Y-76957298D01*
X173878951Y-76995500D01*
X174105916Y-76995500D01*
X174111049Y-76995500D01*
X174339981Y-76957298D01*
X174559503Y-76881936D01*
X174763626Y-76771470D01*
X174946784Y-76628913D01*
X174955130Y-76619846D01*
X175007754Y-76585990D01*
X175070210Y-76582141D01*
X175126592Y-76609278D01*
X175162545Y-76660493D01*
X175191204Y-76737331D01*
X175277454Y-76852546D01*
X175392669Y-76938796D01*
X175527517Y-76989091D01*
X175587127Y-76995500D01*
X175785500Y-76995500D01*
X175847500Y-77012113D01*
X175892887Y-77057500D01*
X175909500Y-77119500D01*
X175909500Y-81708025D01*
X175908978Y-81719080D01*
X175907327Y-81726467D01*
X175907571Y-81734253D01*
X175907571Y-81734261D01*
X175909439Y-81793673D01*
X175909500Y-81797568D01*
X175909500Y-81825150D01*
X175909988Y-81829019D01*
X175909989Y-81829025D01*
X175910004Y-81829143D01*
X175910918Y-81840766D01*
X175912045Y-81876630D01*
X175912046Y-81876637D01*
X175912291Y-81884427D01*
X175914467Y-81891919D01*
X175914468Y-81891921D01*
X175917879Y-81903662D01*
X175921825Y-81922715D01*
X175924336Y-81942592D01*
X175927206Y-81949842D01*
X175927208Y-81949848D01*
X175940414Y-81983204D01*
X175944197Y-81994251D01*
X175956382Y-82036190D01*
X175960353Y-82042905D01*
X175960354Y-82042907D01*
X175966581Y-82053437D01*
X175975136Y-82070899D01*
X175979642Y-82082280D01*
X175979643Y-82082283D01*
X175982514Y-82089532D01*
X176004440Y-82119712D01*
X176008181Y-82124860D01*
X176014593Y-82134622D01*
X176032856Y-82165502D01*
X176032859Y-82165507D01*
X176036830Y-82172220D01*
X176042345Y-82177734D01*
X176042345Y-82177735D01*
X176050990Y-82186380D01*
X176063626Y-82201174D01*
X176070819Y-82211075D01*
X176070823Y-82211079D01*
X176075406Y-82217387D01*
X176081415Y-82222358D01*
X176081416Y-82222359D01*
X176109058Y-82245226D01*
X176117699Y-82253089D01*
X193346707Y-99482097D01*
X193354156Y-99490283D01*
X193358214Y-99496677D01*
X193363899Y-99502015D01*
X193363901Y-99502018D01*
X193407239Y-99542715D01*
X193410036Y-99545425D01*
X193429530Y-99564920D01*
X193432615Y-99567313D01*
X193432701Y-99567380D01*
X193441573Y-99574958D01*
X193473418Y-99604862D01*
X193480248Y-99608617D01*
X193480251Y-99608619D01*
X193490971Y-99614512D01*
X193507222Y-99625186D01*
X193523064Y-99637474D01*
X193530221Y-99640571D01*
X193530223Y-99640572D01*
X193563155Y-99654822D01*
X193573650Y-99659964D01*
X193611908Y-99680997D01*
X193631312Y-99685979D01*
X193649714Y-99692280D01*
X193660941Y-99697138D01*
X193668105Y-99700238D01*
X193709280Y-99706758D01*
X193749050Y-99720257D01*
X193782033Y-99746258D01*
X193801329Y-99767688D01*
X193954470Y-99878951D01*
X194127397Y-99955944D01*
X194312554Y-99995300D01*
X194495343Y-99995300D01*
X194501846Y-99995300D01*
X194687003Y-99955944D01*
X194859930Y-99878951D01*
X195013071Y-99767688D01*
X195139733Y-99627016D01*
X195234379Y-99463084D01*
X195292874Y-99283056D01*
X195312660Y-99094800D01*
X195292874Y-98906544D01*
X195234379Y-98726516D01*
X195139733Y-98562584D01*
X195013071Y-98421912D01*
X195007813Y-98418092D01*
X195007811Y-98418090D01*
X194865188Y-98314469D01*
X194865187Y-98314468D01*
X194859930Y-98310649D01*
X194853992Y-98308005D01*
X194692945Y-98236301D01*
X194692940Y-98236299D01*
X194687003Y-98233656D01*
X194680644Y-98232304D01*
X194680640Y-98232303D01*
X194508208Y-98195652D01*
X194508205Y-98195651D01*
X194501846Y-98194300D01*
X194312554Y-98194300D01*
X194306195Y-98195651D01*
X194306191Y-98195652D01*
X194133759Y-98232303D01*
X194133752Y-98232305D01*
X194127397Y-98233656D01*
X194082879Y-98253477D01*
X194025383Y-98279076D01*
X193977112Y-98289777D01*
X193928497Y-98280767D01*
X193887267Y-98253477D01*
X191617130Y-95983340D01*
X191585615Y-95929838D01*
X191583989Y-95867765D01*
X191612661Y-95812687D01*
X191636240Y-95786500D01*
X191696733Y-95719316D01*
X191791379Y-95555384D01*
X191849874Y-95375356D01*
X191869660Y-95187100D01*
X191849874Y-94998844D01*
X191791379Y-94818816D01*
X191696733Y-94654884D01*
X191686838Y-94643895D01*
X191574420Y-94519042D01*
X191574419Y-94519041D01*
X191570071Y-94514212D01*
X191564813Y-94510392D01*
X191564811Y-94510390D01*
X191422188Y-94406769D01*
X191422187Y-94406768D01*
X191416930Y-94402949D01*
X191404238Y-94397298D01*
X191249945Y-94328601D01*
X191249940Y-94328599D01*
X191244003Y-94325956D01*
X191237644Y-94324604D01*
X191237640Y-94324603D01*
X191065208Y-94287952D01*
X191065205Y-94287951D01*
X191058846Y-94286600D01*
X191052343Y-94286600D01*
X190999653Y-94286600D01*
X190952200Y-94277161D01*
X190911972Y-94250281D01*
X189643019Y-92981328D01*
X189616139Y-92941100D01*
X189606700Y-92893647D01*
X189606700Y-86455268D01*
X189620215Y-86398973D01*
X189657815Y-86354950D01*
X189711302Y-86332795D01*
X189769018Y-86337337D01*
X189818381Y-86367587D01*
X190457244Y-87006449D01*
X190459834Y-87008536D01*
X190459835Y-87008537D01*
X190497888Y-87039203D01*
X190497891Y-87039204D01*
X190503927Y-87044069D01*
X190634843Y-87103857D01*
X190777300Y-87124339D01*
X190919757Y-87103857D01*
X191050673Y-87044069D01*
X191097356Y-87006450D01*
X192437849Y-85665956D01*
X192475469Y-85619273D01*
X192476952Y-85616026D01*
X197358331Y-85616026D01*
X197358755Y-85621143D01*
X197378441Y-85858727D01*
X197378442Y-85858735D01*
X197378866Y-85863847D01*
X197380123Y-85868814D01*
X197380125Y-85868821D01*
X197438652Y-86099936D01*
X197439911Y-86104907D01*
X197441971Y-86109603D01*
X197537740Y-86327936D01*
X197537743Y-86327942D01*
X197539801Y-86332633D01*
X197542601Y-86336919D01*
X197542605Y-86336926D01*
X197619922Y-86455268D01*
X197675810Y-86540811D01*
X197679284Y-86544585D01*
X197679285Y-86544586D01*
X197840758Y-86719993D01*
X197840761Y-86719996D01*
X197844230Y-86723764D01*
X198040465Y-86876500D01*
X198259164Y-86994854D01*
X198494360Y-87075597D01*
X198739639Y-87116526D01*
X198983175Y-87116526D01*
X198988309Y-87116526D01*
X199233588Y-87075597D01*
X199468784Y-86994854D01*
X199687483Y-86876500D01*
X199883718Y-86723764D01*
X200052138Y-86540811D01*
X200188147Y-86332633D01*
X200288037Y-86104907D01*
X200349082Y-85863847D01*
X200369617Y-85616026D01*
X200355611Y-85446998D01*
X200363670Y-85391683D01*
X200395205Y-85345528D01*
X200443807Y-85317913D01*
X200499597Y-85314451D01*
X200535691Y-85320474D01*
X200779227Y-85320474D01*
X200784361Y-85320474D01*
X201029640Y-85279545D01*
X201264836Y-85198802D01*
X201483535Y-85080448D01*
X201679770Y-84927712D01*
X201848190Y-84744759D01*
X201984199Y-84536581D01*
X202084089Y-84308855D01*
X202145134Y-84067795D01*
X202165669Y-83819974D01*
X202145134Y-83572153D01*
X202084089Y-83331093D01*
X201984199Y-83103367D01*
X201976633Y-83091787D01*
X201850997Y-82899486D01*
X201848190Y-82895189D01*
X201735552Y-82772831D01*
X201683241Y-82716006D01*
X201683237Y-82716003D01*
X201679770Y-82712236D01*
X201483535Y-82559500D01*
X201410008Y-82519709D01*
X201269342Y-82443584D01*
X201269336Y-82443581D01*
X201264836Y-82441146D01*
X201259995Y-82439484D01*
X201259988Y-82439481D01*
X201034491Y-82362068D01*
X201034487Y-82362067D01*
X201029640Y-82360403D01*
X201016390Y-82358192D01*
X200789424Y-82320318D01*
X200789413Y-82320317D01*
X200784361Y-82319474D01*
X200535691Y-82319474D01*
X200530639Y-82320317D01*
X200530627Y-82320318D01*
X200295469Y-82359559D01*
X200295467Y-82359559D01*
X200290412Y-82360403D01*
X200285567Y-82362066D01*
X200285560Y-82362068D01*
X200060063Y-82439481D01*
X200060052Y-82439485D01*
X200055216Y-82441146D01*
X200050719Y-82443579D01*
X200050709Y-82443584D01*
X199841028Y-82557058D01*
X199841021Y-82557062D01*
X199836517Y-82559500D01*
X199832474Y-82562646D01*
X199832466Y-82562652D01*
X199661143Y-82695999D01*
X199640282Y-82712236D01*
X199636819Y-82715997D01*
X199636810Y-82716006D01*
X199475337Y-82891413D01*
X199475331Y-82891420D01*
X199471862Y-82895189D01*
X199469057Y-82899480D01*
X199469054Y-82899486D01*
X199338657Y-83099073D01*
X199338650Y-83099085D01*
X199335853Y-83103367D01*
X199333798Y-83108051D01*
X199333792Y-83108063D01*
X199238023Y-83326396D01*
X199235963Y-83331093D01*
X199234705Y-83336058D01*
X199234704Y-83336063D01*
X199176177Y-83567178D01*
X199176175Y-83567187D01*
X199174918Y-83572153D01*
X199174494Y-83577262D01*
X199174493Y-83577272D01*
X199154807Y-83814857D01*
X199154383Y-83819974D01*
X199155435Y-83832664D01*
X199168389Y-83989000D01*
X199160329Y-84044314D01*
X199128796Y-84090468D01*
X199080196Y-84118083D01*
X199024406Y-84121548D01*
X198993379Y-84116371D01*
X198993367Y-84116370D01*
X198988309Y-84115526D01*
X198739639Y-84115526D01*
X198734587Y-84116369D01*
X198734575Y-84116370D01*
X198499417Y-84155611D01*
X198499415Y-84155611D01*
X198494360Y-84156455D01*
X198489515Y-84158118D01*
X198489508Y-84158120D01*
X198264011Y-84235533D01*
X198264000Y-84235537D01*
X198259164Y-84237198D01*
X198254667Y-84239631D01*
X198254657Y-84239636D01*
X198044976Y-84353110D01*
X198044969Y-84353114D01*
X198040465Y-84355552D01*
X198036422Y-84358698D01*
X198036414Y-84358704D01*
X197848278Y-84505137D01*
X197844230Y-84508288D01*
X197840767Y-84512049D01*
X197840758Y-84512058D01*
X197679285Y-84687465D01*
X197679279Y-84687472D01*
X197675810Y-84691241D01*
X197673005Y-84695532D01*
X197673002Y-84695538D01*
X197542605Y-84895125D01*
X197542598Y-84895137D01*
X197539801Y-84899419D01*
X197537746Y-84904103D01*
X197537740Y-84904115D01*
X197441971Y-85122448D01*
X197439911Y-85127145D01*
X197438653Y-85132110D01*
X197438652Y-85132115D01*
X197380125Y-85363230D01*
X197380123Y-85363239D01*
X197378866Y-85368205D01*
X197378442Y-85373314D01*
X197378441Y-85373324D01*
X197369637Y-85479577D01*
X197358331Y-85616026D01*
X192476952Y-85616026D01*
X192535257Y-85488357D01*
X192555739Y-85345900D01*
X192535257Y-85203443D01*
X192475469Y-85072527D01*
X192437850Y-85025844D01*
X191097356Y-83685351D01*
X191094764Y-83683262D01*
X191056711Y-83652596D01*
X191056706Y-83652593D01*
X191050673Y-83647731D01*
X191029516Y-83638069D01*
X190927826Y-83591628D01*
X190927825Y-83591627D01*
X190919757Y-83587943D01*
X190910981Y-83586681D01*
X190910977Y-83586680D01*
X190786077Y-83568723D01*
X190777300Y-83567461D01*
X190768523Y-83568723D01*
X190643622Y-83586680D01*
X190643616Y-83586681D01*
X190634843Y-83587943D01*
X190626776Y-83591626D01*
X190626776Y-83591627D01*
X190559158Y-83622507D01*
X190501358Y-83633552D01*
X190444975Y-83616708D01*
X190402706Y-83575768D01*
X190384072Y-83519957D01*
X190367383Y-83318544D01*
X190310406Y-83093549D01*
X190217173Y-82881000D01*
X190106914Y-82712236D01*
X190093029Y-82690983D01*
X190093027Y-82690981D01*
X190090228Y-82686696D01*
X189933033Y-82515936D01*
X189881341Y-82475703D01*
X189753921Y-82376528D01*
X189753920Y-82376527D01*
X189749875Y-82373379D01*
X189661491Y-82325548D01*
X189550256Y-82265350D01*
X189550251Y-82265348D01*
X189545752Y-82262913D01*
X189540906Y-82261249D01*
X189540903Y-82261248D01*
X189331083Y-82189217D01*
X189331082Y-82189216D01*
X189326230Y-82187551D01*
X189321180Y-82186708D01*
X189321171Y-82186706D01*
X189102360Y-82150193D01*
X189102351Y-82150192D01*
X189097298Y-82149349D01*
X188865200Y-82149349D01*
X188860147Y-82150192D01*
X188860137Y-82150193D01*
X188641326Y-82186706D01*
X188641314Y-82186708D01*
X188636268Y-82187551D01*
X188631418Y-82189215D01*
X188631414Y-82189217D01*
X188421594Y-82261248D01*
X188421586Y-82261251D01*
X188416746Y-82262913D01*
X188412250Y-82265345D01*
X188412241Y-82265350D01*
X188217131Y-82370939D01*
X188217127Y-82370941D01*
X188212623Y-82373379D01*
X188208583Y-82376523D01*
X188208576Y-82376528D01*
X188033512Y-82512785D01*
X188033504Y-82512792D01*
X188029465Y-82515936D01*
X188025995Y-82519704D01*
X188025991Y-82519709D01*
X187875740Y-82682926D01*
X187875737Y-82682929D01*
X187872270Y-82686696D01*
X187869475Y-82690973D01*
X187869468Y-82690983D01*
X187779528Y-82828648D01*
X187745325Y-82881000D01*
X187743270Y-82885684D01*
X187743265Y-82885694D01*
X187654152Y-83088852D01*
X187652092Y-83093549D01*
X187650834Y-83098514D01*
X187650833Y-83098519D01*
X187596374Y-83313569D01*
X187596372Y-83313578D01*
X187595115Y-83318544D01*
X187594691Y-83323651D01*
X187594690Y-83323662D01*
X187576449Y-83543804D01*
X187575949Y-83549849D01*
X187576373Y-83554966D01*
X187594690Y-83776035D01*
X187594691Y-83776044D01*
X187595115Y-83781154D01*
X187596372Y-83786121D01*
X187596374Y-83786128D01*
X187647749Y-83989000D01*
X187652092Y-84006149D01*
X187654152Y-84010845D01*
X187743265Y-84214003D01*
X187743268Y-84214008D01*
X187745325Y-84218698D01*
X187807329Y-84313603D01*
X187869468Y-84408714D01*
X187869471Y-84408718D01*
X187872270Y-84413002D01*
X188029465Y-84583762D01*
X188212623Y-84726319D01*
X188290718Y-84768582D01*
X188338223Y-84814163D01*
X188355700Y-84877637D01*
X188355700Y-92422548D01*
X188342185Y-92478843D01*
X188304585Y-92522866D01*
X188251098Y-92545021D01*
X188193382Y-92540479D01*
X188144019Y-92510229D01*
X182756867Y-87123077D01*
X177196819Y-81563028D01*
X177169939Y-81522800D01*
X177160500Y-81475347D01*
X177160500Y-77119499D01*
X177177113Y-77057499D01*
X177222500Y-77012112D01*
X177284500Y-76995499D01*
X177479561Y-76995499D01*
X177482872Y-76995499D01*
X177542483Y-76989091D01*
X177677331Y-76938796D01*
X177792546Y-76852546D01*
X177878796Y-76737331D01*
X177929091Y-76602483D01*
X177935500Y-76542873D01*
X177935499Y-74647128D01*
X177929091Y-74587517D01*
X177878796Y-74452669D01*
X177792546Y-74337454D01*
X177756541Y-74310501D01*
X177684431Y-74256519D01*
X177684430Y-74256518D01*
X177677331Y-74251204D01*
X177542483Y-74200909D01*
X177534770Y-74200079D01*
X177534767Y-74200079D01*
X177486180Y-74194855D01*
X177486169Y-74194854D01*
X177482873Y-74194500D01*
X177479550Y-74194500D01*
X175590439Y-74194500D01*
X175590420Y-74194500D01*
X175587128Y-74194501D01*
X175583850Y-74194853D01*
X175583838Y-74194854D01*
X175535231Y-74200079D01*
X175535225Y-74200080D01*
X175527517Y-74200909D01*
X175520252Y-74203618D01*
X175520246Y-74203620D01*
X175400980Y-74248104D01*
X175400978Y-74248104D01*
X175392669Y-74251204D01*
X175385572Y-74256516D01*
X175385568Y-74256519D01*
X175284550Y-74332141D01*
X175284546Y-74332144D01*
X175277454Y-74337454D01*
X175272144Y-74344546D01*
X175272141Y-74344550D01*
X175196519Y-74445568D01*
X175196516Y-74445572D01*
X175191204Y-74452669D01*
X175188104Y-74460978D01*
X175188105Y-74460978D01*
X175162545Y-74529507D01*
X175126593Y-74580720D01*
X175070213Y-74607858D01*
X175007759Y-74604011D01*
X174955135Y-74570158D01*
X174950259Y-74564862D01*
X174950257Y-74564860D01*
X174946784Y-74561087D01*
X174818163Y-74460978D01*
X174767672Y-74421679D01*
X174767671Y-74421678D01*
X174763626Y-74418530D01*
X174709497Y-74389237D01*
X174564007Y-74310501D01*
X174564002Y-74310499D01*
X174559503Y-74308064D01*
X174554657Y-74306400D01*
X174554654Y-74306399D01*
X174344834Y-74234368D01*
X174344833Y-74234367D01*
X174339981Y-74232702D01*
X174334931Y-74231859D01*
X174334922Y-74231857D01*
X174116111Y-74195344D01*
X174116102Y-74195343D01*
X174111049Y-74194500D01*
X173878951Y-74194500D01*
X173873898Y-74195343D01*
X173873888Y-74195344D01*
X173655077Y-74231857D01*
X173655065Y-74231859D01*
X173650019Y-74232702D01*
X173645169Y-74234366D01*
X173645165Y-74234368D01*
X173435345Y-74306399D01*
X173435337Y-74306402D01*
X173430497Y-74308064D01*
X173426001Y-74310496D01*
X173425992Y-74310501D01*
X173230882Y-74416090D01*
X173230878Y-74416092D01*
X173226374Y-74418530D01*
X173222334Y-74421674D01*
X173222327Y-74421679D01*
X173047263Y-74557936D01*
X173047255Y-74557943D01*
X173043216Y-74561087D01*
X173039746Y-74564855D01*
X173039742Y-74564860D01*
X172889491Y-74728077D01*
X172889488Y-74728080D01*
X172886021Y-74731847D01*
X172883226Y-74736124D01*
X172883219Y-74736134D01*
X172761878Y-74921862D01*
X172759076Y-74926151D01*
X172757021Y-74930835D01*
X172757016Y-74930845D01*
X172667903Y-75134003D01*
X172665843Y-75138700D01*
X172664585Y-75143665D01*
X172664584Y-75143670D01*
X172610125Y-75358720D01*
X172610123Y-75358729D01*
X172608866Y-75363695D01*
X172608442Y-75368802D01*
X172608441Y-75368813D01*
X172594899Y-75532259D01*
X172589700Y-75595000D01*
X151349589Y-75595000D01*
X155162771Y-71781819D01*
X155203000Y-71754939D01*
X155250453Y-71745500D01*
X166194851Y-71745500D01*
X166241514Y-71754615D01*
X166281317Y-71780620D01*
X166308406Y-71819689D01*
X166315827Y-71836607D01*
X166318627Y-71840893D01*
X166318631Y-71840900D01*
X166446675Y-72036885D01*
X166451836Y-72044785D01*
X166455310Y-72048559D01*
X166455311Y-72048560D01*
X166616784Y-72223967D01*
X166616787Y-72223970D01*
X166620256Y-72227738D01*
X166816491Y-72380474D01*
X167035190Y-72498828D01*
X167270386Y-72579571D01*
X167515665Y-72620500D01*
X167759201Y-72620500D01*
X167764335Y-72620500D01*
X168009614Y-72579571D01*
X168244810Y-72498828D01*
X168463509Y-72380474D01*
X168659744Y-72227738D01*
X168828164Y-72044785D01*
X168964173Y-71836607D01*
X169064063Y-71608881D01*
X169125108Y-71367821D01*
X169145643Y-71120000D01*
X169125108Y-70872179D01*
X169064063Y-70631119D01*
X168964173Y-70403393D01*
X168828164Y-70195215D01*
X168786392Y-70149838D01*
X168663215Y-70016032D01*
X168663211Y-70016029D01*
X168659744Y-70012262D01*
X168576988Y-69947850D01*
X168541753Y-69904460D01*
X168529153Y-69850000D01*
X168541753Y-69795540D01*
X168576988Y-69752149D01*
X168659744Y-69687738D01*
X168828164Y-69504785D01*
X168964173Y-69296607D01*
X169064063Y-69068881D01*
X169125108Y-68827821D01*
X169145643Y-68580000D01*
X169125108Y-68332179D01*
X169064063Y-68091119D01*
X168964173Y-67863393D01*
X168828164Y-67655215D01*
X168665598Y-67478621D01*
X168663215Y-67476032D01*
X168663211Y-67476029D01*
X168659744Y-67472262D01*
X168463509Y-67319526D01*
X168458997Y-67317084D01*
X168249316Y-67203610D01*
X168249310Y-67203607D01*
X168244810Y-67201172D01*
X168239969Y-67199510D01*
X168239962Y-67199507D01*
X168014465Y-67122094D01*
X168014461Y-67122093D01*
X168009614Y-67120429D01*
X168000768Y-67118952D01*
X167769398Y-67080344D01*
X167769387Y-67080343D01*
X167764335Y-67079500D01*
X167515665Y-67079500D01*
X167510613Y-67080343D01*
X167510601Y-67080344D01*
X167275443Y-67119585D01*
X167275441Y-67119585D01*
X167270386Y-67120429D01*
X167265541Y-67122092D01*
X167265534Y-67122094D01*
X167040037Y-67199507D01*
X167040026Y-67199511D01*
X167035190Y-67201172D01*
X167030693Y-67203605D01*
X167030683Y-67203610D01*
X166821002Y-67317084D01*
X166820995Y-67317088D01*
X166816491Y-67319526D01*
X166812448Y-67322672D01*
X166812440Y-67322678D01*
X166624304Y-67469111D01*
X166620256Y-67472262D01*
X166616793Y-67476023D01*
X166616784Y-67476032D01*
X166455311Y-67651439D01*
X166455305Y-67651446D01*
X166451836Y-67655215D01*
X166449031Y-67659506D01*
X166449028Y-67659512D01*
X166318631Y-67859099D01*
X166318624Y-67859111D01*
X166315827Y-67863393D01*
X166313772Y-67868077D01*
X166313766Y-67868089D01*
X166217997Y-68086422D01*
X166215937Y-68091119D01*
X166214679Y-68096084D01*
X166214678Y-68096089D01*
X166156151Y-68327204D01*
X166156149Y-68327213D01*
X166154892Y-68332179D01*
X166154468Y-68337288D01*
X166154467Y-68337298D01*
X166134781Y-68574883D01*
X166134357Y-68580000D01*
X166134781Y-68585117D01*
X166154467Y-68822701D01*
X166154468Y-68822709D01*
X166154892Y-68827821D01*
X166156149Y-68832788D01*
X166156151Y-68832795D01*
X166180598Y-68929333D01*
X166215937Y-69068881D01*
X166217997Y-69073577D01*
X166313766Y-69291910D01*
X166313769Y-69291916D01*
X166315827Y-69296607D01*
X166318627Y-69300893D01*
X166318631Y-69300900D01*
X166446675Y-69496885D01*
X166451836Y-69504785D01*
X166455310Y-69508559D01*
X166455311Y-69508560D01*
X166616784Y-69683967D01*
X166616787Y-69683970D01*
X166620256Y-69687738D01*
X166703009Y-69752147D01*
X166738247Y-69795540D01*
X166750846Y-69850000D01*
X166738247Y-69904460D01*
X166703009Y-69947852D01*
X166620256Y-70012262D01*
X166616793Y-70016023D01*
X166616784Y-70016032D01*
X166455311Y-70191439D01*
X166455305Y-70191446D01*
X166451836Y-70195215D01*
X166449031Y-70199506D01*
X166449028Y-70199512D01*
X166318631Y-70399099D01*
X166318624Y-70399111D01*
X166315827Y-70403393D01*
X166308406Y-70420310D01*
X166281317Y-70459380D01*
X166241514Y-70485385D01*
X166194851Y-70494500D01*
X155017771Y-70494500D01*
X155006718Y-70493979D01*
X154999332Y-70492328D01*
X154991534Y-70492573D01*
X154932144Y-70494439D01*
X154928250Y-70494500D01*
X154900650Y-70494500D01*
X154896799Y-70494986D01*
X154896768Y-70494988D01*
X154896640Y-70495005D01*
X154885029Y-70495918D01*
X154849172Y-70497045D01*
X154849165Y-70497046D01*
X154841373Y-70497291D01*
X154833888Y-70499465D01*
X154833872Y-70499468D01*
X154822126Y-70502881D01*
X154803083Y-70506825D01*
X154790949Y-70508358D01*
X154790948Y-70508358D01*
X154783208Y-70509336D01*
X154775958Y-70512205D01*
X154775951Y-70512208D01*
X154742598Y-70525413D01*
X154731554Y-70529194D01*
X154697105Y-70539203D01*
X154697095Y-70539207D01*
X154689610Y-70541382D01*
X154682900Y-70545349D01*
X154682898Y-70545351D01*
X154679505Y-70547357D01*
X154672360Y-70551583D01*
X154654900Y-70560136D01*
X154636268Y-70567514D01*
X154629965Y-70572092D01*
X154629958Y-70572097D01*
X154600939Y-70593181D01*
X154591179Y-70599592D01*
X154560294Y-70617857D01*
X154560284Y-70617864D01*
X154553579Y-70621830D01*
X154548063Y-70627345D01*
X154548060Y-70627348D01*
X154539407Y-70636000D01*
X154524624Y-70648626D01*
X154514727Y-70655817D01*
X154514720Y-70655823D01*
X154508413Y-70660406D01*
X154503446Y-70666408D01*
X154503435Y-70666420D01*
X154480570Y-70694059D01*
X154472710Y-70702697D01*
X142817215Y-82358192D01*
X142757484Y-82391320D01*
X142689272Y-82387792D01*
X142614495Y-82362121D01*
X142614486Y-82362118D01*
X142609640Y-82360455D01*
X142596078Y-82358192D01*
X142369424Y-82320370D01*
X142369413Y-82320369D01*
X142364361Y-82319526D01*
X142115691Y-82319526D01*
X142110633Y-82320369D01*
X142110620Y-82320371D01*
X142079593Y-82325548D01*
X142023802Y-82322083D01*
X141975203Y-82294467D01*
X141943669Y-82248313D01*
X141935611Y-82192999D01*
X141935925Y-82189217D01*
X141949617Y-82023974D01*
X141929082Y-81776153D01*
X141868037Y-81535093D01*
X141768147Y-81307367D01*
X141751646Y-81282111D01*
X141634945Y-81103486D01*
X141632138Y-81099189D01*
X141628662Y-81095413D01*
X141467189Y-80920006D01*
X141467185Y-80920003D01*
X141463718Y-80916236D01*
X141267483Y-80763500D01*
X141217379Y-80736385D01*
X141053290Y-80647584D01*
X141053284Y-80647581D01*
X141048784Y-80645146D01*
X141043943Y-80643484D01*
X141043936Y-80643481D01*
X140818439Y-80566068D01*
X140818435Y-80566067D01*
X140813588Y-80564403D01*
X140804742Y-80562926D01*
X140573372Y-80524318D01*
X140573361Y-80524317D01*
X140568309Y-80523474D01*
X140319639Y-80523474D01*
X140314587Y-80524317D01*
X140314575Y-80524318D01*
X140079417Y-80563559D01*
X140079415Y-80563559D01*
X140074360Y-80564403D01*
X140069515Y-80566066D01*
X140069508Y-80566068D01*
X139844011Y-80643481D01*
X139844000Y-80643485D01*
X139839164Y-80645146D01*
X139834667Y-80647579D01*
X139834657Y-80647584D01*
X139624976Y-80761058D01*
X139624969Y-80761062D01*
X139620465Y-80763500D01*
X139616422Y-80766646D01*
X139616414Y-80766652D01*
X139484890Y-80869022D01*
X139424230Y-80916236D01*
X139420767Y-80919997D01*
X139420758Y-80920006D01*
X139259285Y-81095413D01*
X139259279Y-81095420D01*
X139255810Y-81099189D01*
X139253005Y-81103480D01*
X139253002Y-81103486D01*
X139122605Y-81303073D01*
X139122598Y-81303085D01*
X139119801Y-81307367D01*
X139117746Y-81312051D01*
X139117740Y-81312063D01*
X139021971Y-81530396D01*
X139019911Y-81535093D01*
X139018653Y-81540058D01*
X139018652Y-81540063D01*
X138960125Y-81771178D01*
X138960123Y-81771187D01*
X138958866Y-81776153D01*
X138958442Y-81781262D01*
X138958441Y-81781272D01*
X138945966Y-81931828D01*
X138938331Y-82023974D01*
X138938755Y-82029091D01*
X138958441Y-82266675D01*
X138958442Y-82266683D01*
X138958866Y-82271795D01*
X138960123Y-82276762D01*
X138960125Y-82276769D01*
X139002369Y-82443584D01*
X139019911Y-82512855D01*
X139037986Y-82554061D01*
X139117740Y-82735884D01*
X139117743Y-82735890D01*
X139119801Y-82740581D01*
X139122601Y-82744867D01*
X139122605Y-82744874D01*
X139208739Y-82876711D01*
X139255810Y-82948759D01*
X139259284Y-82952533D01*
X139259285Y-82952534D01*
X139420758Y-83127941D01*
X139420761Y-83127944D01*
X139424230Y-83131712D01*
X139620465Y-83284448D01*
X139839164Y-83402802D01*
X140074360Y-83483545D01*
X140319639Y-83524474D01*
X140563176Y-83524474D01*
X140568309Y-83524474D01*
X140604402Y-83518451D01*
X140660193Y-83521915D01*
X140708794Y-83549530D01*
X140740329Y-83595684D01*
X140748388Y-83650998D01*
X140734383Y-83820026D01*
X140734807Y-83825143D01*
X140754493Y-84062727D01*
X140754494Y-84062735D01*
X140754918Y-84067847D01*
X140756175Y-84072814D01*
X140756177Y-84072821D01*
X140798421Y-84239636D01*
X140815963Y-84308907D01*
X140818023Y-84313603D01*
X140913792Y-84531936D01*
X140913795Y-84531942D01*
X140915853Y-84536633D01*
X140918653Y-84540919D01*
X140918657Y-84540926D01*
X141000221Y-84665768D01*
X141051862Y-84744811D01*
X141055336Y-84748585D01*
X141055337Y-84748586D01*
X141216810Y-84923993D01*
X141216813Y-84923996D01*
X141220282Y-84927764D01*
X141416517Y-85080500D01*
X141511893Y-85132115D01*
X141549517Y-85152476D01*
X141597023Y-85198057D01*
X141614500Y-85261531D01*
X141614500Y-111902225D01*
X141613978Y-111913280D01*
X141612327Y-111920667D01*
X141612571Y-111928453D01*
X141612571Y-111928461D01*
X141614439Y-111987873D01*
X141614500Y-111991768D01*
X141614500Y-112019350D01*
X141614988Y-112023219D01*
X141614989Y-112023225D01*
X141615004Y-112023343D01*
X141615918Y-112034966D01*
X141617045Y-112070830D01*
X141617046Y-112070837D01*
X141617291Y-112078627D01*
X141619467Y-112086119D01*
X141619468Y-112086121D01*
X141622879Y-112097862D01*
X141626825Y-112116915D01*
X141629336Y-112136792D01*
X141632206Y-112144042D01*
X141632208Y-112144048D01*
X141645414Y-112177404D01*
X141649197Y-112188451D01*
X141661382Y-112230390D01*
X141665353Y-112237105D01*
X141665354Y-112237107D01*
X141671581Y-112247637D01*
X141680136Y-112265099D01*
X141684642Y-112276480D01*
X141684643Y-112276483D01*
X141687514Y-112283732D01*
X141698764Y-112299216D01*
X141713181Y-112319060D01*
X141719593Y-112328822D01*
X141737856Y-112359702D01*
X141737859Y-112359707D01*
X141741830Y-112366420D01*
X141747345Y-112371934D01*
X141747345Y-112371935D01*
X141755990Y-112380580D01*
X141768626Y-112395374D01*
X141775819Y-112405275D01*
X141775823Y-112405279D01*
X141780406Y-112411587D01*
X141786415Y-112416558D01*
X141786416Y-112416559D01*
X141814058Y-112439426D01*
X141822699Y-112447289D01*
X153592333Y-124216924D01*
X153621282Y-124262493D01*
X153628123Y-124316045D01*
X153615314Y-124454290D01*
X153614785Y-124460000D01*
X153615314Y-124465709D01*
X153633073Y-124657373D01*
X153633074Y-124657382D01*
X153633603Y-124663083D01*
X153635172Y-124668598D01*
X153635792Y-124671912D01*
X153633923Y-124725868D01*
X153609302Y-124773916D01*
X153566598Y-124806947D01*
X153513904Y-124818700D01*
X151935652Y-124818700D01*
X151888199Y-124809261D01*
X151847971Y-124782381D01*
X138886961Y-111821370D01*
X138862721Y-111787072D01*
X138851321Y-111746650D01*
X138843217Y-111669547D01*
X138833674Y-111578744D01*
X138775179Y-111398716D01*
X138680533Y-111234784D01*
X138553871Y-111094112D01*
X138548613Y-111090292D01*
X138548611Y-111090290D01*
X138405988Y-110986669D01*
X138405987Y-110986668D01*
X138400730Y-110982849D01*
X138394792Y-110980205D01*
X138233745Y-110908501D01*
X138233740Y-110908499D01*
X138227803Y-110905856D01*
X138221444Y-110904504D01*
X138221440Y-110904503D01*
X138049008Y-110867852D01*
X138049005Y-110867851D01*
X138042646Y-110866500D01*
X137853354Y-110866500D01*
X137846995Y-110867851D01*
X137846991Y-110867852D01*
X137674559Y-110904503D01*
X137674552Y-110904505D01*
X137668197Y-110905856D01*
X137662262Y-110908498D01*
X137662254Y-110908501D01*
X137501207Y-110980205D01*
X137501202Y-110980207D01*
X137495270Y-110982849D01*
X137490016Y-110986665D01*
X137490011Y-110986669D01*
X137347388Y-111090290D01*
X137347381Y-111090295D01*
X137342129Y-111094112D01*
X137337784Y-111098937D01*
X137337779Y-111098942D01*
X137219813Y-111229956D01*
X137219808Y-111229962D01*
X137215467Y-111234784D01*
X137212222Y-111240404D01*
X137212218Y-111240410D01*
X137124069Y-111393089D01*
X137124066Y-111393094D01*
X137120821Y-111398716D01*
X137118815Y-111404888D01*
X137118813Y-111404894D01*
X137064333Y-111572564D01*
X137064331Y-111572573D01*
X137062326Y-111578744D01*
X137061648Y-111585194D01*
X137061646Y-111585204D01*
X137049129Y-111704310D01*
X137042540Y-111767000D01*
X129540500Y-111767000D01*
X129540500Y-104140964D01*
X129540515Y-104139036D01*
X129560128Y-102878043D01*
X129560248Y-102874188D01*
X129607375Y-101864852D01*
X129619024Y-101615354D01*
X129619263Y-101611527D01*
X129619699Y-101605938D01*
X129709482Y-100453676D01*
X129717449Y-100352443D01*
X129717783Y-100348888D01*
X129828415Y-99336706D01*
X129828444Y-99336709D01*
X129828429Y-99336575D01*
X129828430Y-99336571D01*
X129828477Y-99336133D01*
X129855670Y-99089826D01*
X129856124Y-99086215D01*
X129986817Y-98158612D01*
X130033296Y-97832037D01*
X130033842Y-97828566D01*
X130184475Y-96956678D01*
X130250130Y-96580491D01*
X130250795Y-96576990D01*
X130421287Y-95745249D01*
X130505992Y-95336230D01*
X130506727Y-95332924D01*
X130696922Y-94532486D01*
X130700630Y-94517043D01*
X130800583Y-94100706D01*
X130801432Y-94097381D01*
X131011142Y-93322772D01*
X131133647Y-92874972D01*
X131134577Y-92871749D01*
X131363628Y-92119304D01*
X131363723Y-92119333D01*
X131363733Y-92118960D01*
X131504852Y-91660247D01*
X131505916Y-91656955D01*
X131754213Y-90923936D01*
X131913866Y-90457631D01*
X131914965Y-90454562D01*
X132182260Y-89739461D01*
X132360240Y-89268454D01*
X132361406Y-89265489D01*
X132647517Y-88567090D01*
X132843536Y-88093860D01*
X132844822Y-88090871D01*
X133149399Y-87408686D01*
X133363323Y-86934897D01*
X133364686Y-86931985D01*
X133687473Y-86265503D01*
X133919059Y-85792776D01*
X133920490Y-85789953D01*
X134261390Y-85138530D01*
X134510223Y-84668568D01*
X134511721Y-84665828D01*
X134870144Y-84029883D01*
X134870398Y-84029436D01*
X134886516Y-84001178D01*
X135136213Y-83563411D01*
X135137756Y-83560785D01*
X135513739Y-82939673D01*
X135796469Y-82478300D01*
X135798046Y-82475798D01*
X136191203Y-81869703D01*
X136490247Y-81414454D01*
X136491928Y-81411963D01*
X136901841Y-80821131D01*
X137216984Y-80372730D01*
X137218678Y-80370384D01*
X137644971Y-79795009D01*
X137975939Y-79354203D01*
X137977585Y-79352066D01*
X138419843Y-78792409D01*
X138766238Y-78360037D01*
X138768012Y-78357877D01*
X139225859Y-77814147D01*
X139587319Y-77390933D01*
X139589108Y-77388888D01*
X140062111Y-76861369D01*
X140438276Y-76447970D01*
X140440059Y-76446057D01*
X140927941Y-75934864D01*
X141318173Y-75532176D01*
X141320056Y-75530278D01*
X141822179Y-75035905D01*
X141822322Y-75035766D01*
X142226346Y-74644240D01*
X142228228Y-74642458D01*
X142744272Y-74165059D01*
X142744455Y-74164892D01*
X143161710Y-73785219D01*
X143163741Y-73783412D01*
X143693231Y-73323294D01*
X144123672Y-72955664D01*
X144125534Y-72954110D01*
X144667875Y-72511662D01*
X144668207Y-72511394D01*
X145110853Y-72156767D01*
X145112811Y-72155233D01*
X145667720Y-71730578D01*
X145668064Y-71730318D01*
X146122591Y-71389050D01*
X146124570Y-71387597D01*
X146691411Y-70981126D01*
X146691874Y-70980798D01*
X147157794Y-70653344D01*
X147159909Y-70651892D01*
X147737996Y-70263999D01*
X147738687Y-70263540D01*
X148215574Y-69950284D01*
X148217546Y-69949019D01*
X148806860Y-69579640D01*
X148807203Y-69579428D01*
X149294739Y-69280666D01*
X149296734Y-69279472D01*
X149896254Y-68929183D01*
X149896910Y-68928804D01*
X150394291Y-68645104D01*
X150396268Y-68644003D01*
X151005572Y-68312973D01*
X151006366Y-68312547D01*
X151513208Y-68044188D01*
X151515107Y-68043207D01*
X152133904Y-67731542D01*
X152134550Y-67731222D01*
X152650174Y-67478621D01*
X152652234Y-67477637D01*
X153279737Y-67185687D01*
X153280419Y-67185375D01*
X153804337Y-66948817D01*
X153806368Y-66947924D01*
X154442035Y-66675892D01*
X154443027Y-66675475D01*
X154974536Y-66455317D01*
X154976495Y-66454527D01*
X155619737Y-66202623D01*
X155620836Y-66202200D01*
X156159583Y-65998625D01*
X156161529Y-65997911D01*
X156811753Y-65766326D01*
X156812822Y-65765952D01*
X157358153Y-65579243D01*
X157360225Y-65578556D01*
X158016914Y-65367441D01*
X158018193Y-65367039D01*
X158569287Y-65197500D01*
X158571366Y-65196881D01*
X159234069Y-65006358D01*
X159235029Y-65006089D01*
X159791873Y-64853754D01*
X159793812Y-64853242D01*
X160461767Y-64683510D01*
X160462864Y-64683240D01*
X161024524Y-64548397D01*
X161026513Y-64547939D01*
X161698899Y-64399180D01*
X161700186Y-64398903D01*
X162266164Y-64281695D01*
X162267904Y-64281351D01*
X162944469Y-64153597D01*
X162945904Y-64153336D01*
X163515470Y-64053931D01*
X163517189Y-64053647D01*
X164197178Y-63947031D01*
X164198484Y-63946835D01*
X164771153Y-63865333D01*
X164773039Y-63865081D01*
X165455674Y-63779707D01*
X165457123Y-63779536D01*
X166032067Y-63716062D01*
X166033978Y-63715866D01*
X166718820Y-63651774D01*
X166720436Y-63651636D01*
X167297282Y-63606237D01*
X167298958Y-63606119D01*
X167985346Y-63563363D01*
X167987109Y-63563267D01*
X168565075Y-63536011D01*
X168566722Y-63535946D01*
X169254165Y-63514556D01*
X169255837Y-63514517D01*
X169827133Y-63505543D01*
X169834338Y-63505430D01*
X169836285Y-63505415D01*
X170523715Y-63505415D01*
X170525662Y-63505430D01*
G37*
%TD.AperFunction*%
%TD*%
M02*
