%TF.GenerationSoftware,KiCad,Pcbnew,(7.0.0)*%
%TF.CreationDate,2024-03-24T23:30:49+02:00*%
%TF.ProjectId,Sensing Subsystem,53656e73-696e-4672-9053-756273797374,rev?*%
%TF.SameCoordinates,Original*%
%TF.FileFunction,Paste,Top*%
%TF.FilePolarity,Positive*%
%FSLAX46Y46*%
G04 Gerber Fmt 4.6, Leading zero omitted, Abs format (unit mm)*
G04 Created by KiCad (PCBNEW (7.0.0)) date 2024-03-24 23:30:49*
%MOMM*%
%LPD*%
G01*
G04 APERTURE LIST*
G04 Aperture macros list*
%AMRoundRect*
0 Rectangle with rounded corners*
0 $1 Rounding radius*
0 $2 $3 $4 $5 $6 $7 $8 $9 X,Y pos of 4 corners*
0 Add a 4 corners polygon primitive as box body*
4,1,4,$2,$3,$4,$5,$6,$7,$8,$9,$2,$3,0*
0 Add four circle primitives for the rounded corners*
1,1,$1+$1,$2,$3*
1,1,$1+$1,$4,$5*
1,1,$1+$1,$6,$7*
1,1,$1+$1,$8,$9*
0 Add four rect primitives between the rounded corners*
20,1,$1+$1,$2,$3,$4,$5,0*
20,1,$1+$1,$4,$5,$6,$7,0*
20,1,$1+$1,$6,$7,$8,$9,0*
20,1,$1+$1,$8,$9,$2,$3,0*%
G04 Aperture macros list end*
%ADD10RoundRect,0.250000X-0.325000X-0.650000X0.325000X-0.650000X0.325000X0.650000X-0.325000X0.650000X0*%
%ADD11RoundRect,0.250000X-0.262500X-0.450000X0.262500X-0.450000X0.262500X0.450000X-0.262500X0.450000X0*%
%ADD12RoundRect,0.150000X-0.587500X-0.150000X0.587500X-0.150000X0.587500X0.150000X-0.587500X0.150000X0*%
G04 APERTURE END LIST*
D10*
%TO.C,C8*%
X165215000Y-99060000D03*
X168165000Y-99060000D03*
%TD*%
%TO.C,C7*%
X162675000Y-91440000D03*
X165625000Y-91440000D03*
%TD*%
%TO.C,C4*%
X142355000Y-119380000D03*
X145305000Y-119380000D03*
%TD*%
%TO.C,C3*%
X132195000Y-121920000D03*
X135145000Y-121920000D03*
%TD*%
%TO.C,C2*%
X185535000Y-116840000D03*
X188485000Y-116840000D03*
%TD*%
%TO.C,C1*%
X172195000Y-114300000D03*
X175145000Y-114300000D03*
%TD*%
D11*
%TO.C,R7*%
X173435000Y-99060000D03*
X175260000Y-99060000D03*
%TD*%
%TO.C,R14*%
X165815000Y-111760000D03*
X167640000Y-111760000D03*
%TD*%
%TO.C,R9*%
X150575000Y-99060000D03*
X152400000Y-99060000D03*
%TD*%
%TO.C,R10*%
X160735000Y-114300000D03*
X162560000Y-114300000D03*
%TD*%
%TO.C,R1*%
X196295000Y-119380000D03*
X198120000Y-119380000D03*
%TD*%
%TO.C,R13*%
X193040000Y-114300000D03*
X194865000Y-114300000D03*
%TD*%
D12*
%TO.C,Q4*%
X157480000Y-91440000D03*
X157480000Y-93340000D03*
X159355000Y-92390000D03*
%TD*%
D11*
%TO.C,R5*%
X181967500Y-99060000D03*
X183792500Y-99060000D03*
%TD*%
D12*
%TO.C,Q3*%
X193040000Y-99060000D03*
X193040000Y-100960000D03*
X194915000Y-100010000D03*
%TD*%
%TO.C,Q2*%
X167640000Y-76200000D03*
X167640000Y-78100000D03*
X169515000Y-77150000D03*
%TD*%
D11*
%TO.C,R6*%
X188675000Y-96520000D03*
X190500000Y-96520000D03*
%TD*%
%TO.C,R12*%
X201375000Y-114300000D03*
X203200000Y-114300000D03*
%TD*%
%TO.C,R4*%
X140415000Y-99060000D03*
X142240000Y-99060000D03*
%TD*%
%TO.C,R3*%
X206455000Y-119380000D03*
X208280000Y-119380000D03*
%TD*%
%TO.C,R2*%
X180340000Y-88900000D03*
X182165000Y-88900000D03*
%TD*%
D12*
%TO.C,Q1*%
X185420000Y-91440000D03*
X185420000Y-93340000D03*
X187295000Y-92390000D03*
%TD*%
D11*
%TO.C,R11*%
X191215000Y-91440000D03*
X193040000Y-91440000D03*
%TD*%
%TO.C,R8*%
X150575000Y-114300000D03*
X152400000Y-114300000D03*
%TD*%
M02*
