%TF.GenerationSoftware,KiCad,Pcbnew,(7.0.0)*%
%TF.CreationDate,2024-03-24T23:30:49+02:00*%
%TF.ProjectId,Sensing Subsystem,53656e73-696e-4672-9053-756273797374,rev?*%
%TF.SameCoordinates,Original*%
%TF.FileFunction,Soldermask,Top*%
%TF.FilePolarity,Negative*%
%FSLAX46Y46*%
G04 Gerber Fmt 4.6, Leading zero omitted, Abs format (unit mm)*
G04 Created by KiCad (PCBNEW (7.0.0)) date 2024-03-24 23:30:49*
%MOMM*%
%LPD*%
G01*
G04 APERTURE LIST*
G04 Aperture macros list*
%AMRoundRect*
0 Rectangle with rounded corners*
0 $1 Rounding radius*
0 $2 $3 $4 $5 $6 $7 $8 $9 X,Y pos of 4 corners*
0 Add a 4 corners polygon primitive as box body*
4,1,4,$2,$3,$4,$5,$6,$7,$8,$9,$2,$3,0*
0 Add four circle primitives for the rounded corners*
1,1,$1+$1,$2,$3*
1,1,$1+$1,$4,$5*
1,1,$1+$1,$6,$7*
1,1,$1+$1,$8,$9*
0 Add four rect primitives between the rounded corners*
20,1,$1+$1,$2,$3,$4,$5,0*
20,1,$1+$1,$4,$5,$6,$7,0*
20,1,$1+$1,$6,$7,$8,$9,0*
20,1,$1+$1,$8,$9,$2,$3,0*%
%AMRotRect*
0 Rectangle, with rotation*
0 The origin of the aperture is its center*
0 $1 length*
0 $2 width*
0 $3 Rotation angle, in degrees counterclockwise*
0 Add horizontal line*
21,1,$1,$2,0,0,$3*%
%AMFreePoly0*
4,1,19,0.500000,-0.750000,0.000000,-0.750000,0.000000,-0.744911,-0.071157,-0.744911,-0.207708,-0.704816,-0.327430,-0.627875,-0.420627,-0.520320,-0.479746,-0.390866,-0.500000,-0.250000,-0.500000,0.250000,-0.479746,0.390866,-0.420627,0.520320,-0.327430,0.627875,-0.207708,0.704816,-0.071157,0.744911,0.000000,0.744911,0.000000,0.750000,0.500000,0.750000,0.500000,-0.750000,0.500000,-0.750000,
$1*%
%AMFreePoly1*
4,1,19,0.000000,0.744911,0.071157,0.744911,0.207708,0.704816,0.327430,0.627875,0.420627,0.520320,0.479746,0.390866,0.500000,0.250000,0.500000,-0.250000,0.479746,-0.390866,0.420627,-0.520320,0.327430,-0.627875,0.207708,-0.704816,0.071157,-0.744911,0.000000,-0.744911,0.000000,-0.750000,-0.500000,-0.750000,-0.500000,0.750000,0.000000,0.750000,0.000000,0.744911,0.000000,0.744911,
$1*%
G04 Aperture macros list end*
%ADD10C,1.000000*%
%ADD11RoundRect,0.250000X-0.325000X-0.650000X0.325000X-0.650000X0.325000X0.650000X-0.325000X0.650000X0*%
%ADD12FreePoly0,0.000000*%
%ADD13FreePoly1,0.000000*%
%ADD14RoundRect,0.250000X-0.262500X-0.450000X0.262500X-0.450000X0.262500X0.450000X-0.262500X0.450000X0*%
%ADD15R,1.800000X1.800000*%
%ADD16C,1.800000*%
%ADD17C,1.000000*%
%ADD18RotRect,1.800000X1.800000X225.000000*%
%ADD19RoundRect,0.250000X-0.350000X-0.350000X0.350000X-0.350000X0.350000X0.350000X-0.350000X0.350000X0*%
%ADD20C,1.200000*%
%ADD21RoundRect,0.150000X-0.587500X-0.150000X0.587500X-0.150000X0.587500X0.150000X-0.587500X0.150000X0*%
%ADD22RotRect,1.800000X1.800000X135.000000*%
G04 APERTURE END LIST*
D10*
%TO.C,D6*%
X140943975Y-82023974D02*
G75*
G03*
X140943975Y-82023974I-500001J0D01*
G01*
X142740025Y-83820026D02*
G75*
G03*
X142740025Y-83820026I-499999J0D01*
G01*
%TO.C,D4*%
X168140000Y-68580000D02*
G75*
G03*
X168140000Y-68580000I-500000J0D01*
G01*
X168140000Y-71120000D02*
G75*
G03*
X168140000Y-71120000I-500000J0D01*
G01*
%TO.C,D3*%
X201160027Y-83819974D02*
G75*
G03*
X201160027Y-83819974I-500001J0D01*
G01*
X199363973Y-85616026D02*
G75*
G03*
X199363973Y-85616026I-499999J0D01*
G01*
%TD*%
D11*
%TO.C,C8*%
X165215000Y-99060000D03*
X168165000Y-99060000D03*
%TD*%
%TO.C,C7*%
X162675000Y-91440000D03*
X165625000Y-91440000D03*
%TD*%
%TO.C,C4*%
X142355000Y-119380000D03*
X145305000Y-119380000D03*
%TD*%
%TO.C,C3*%
X132195000Y-121920000D03*
X135145000Y-121920000D03*
%TD*%
%TO.C,C2*%
X185535000Y-116840000D03*
X188485000Y-116840000D03*
%TD*%
%TO.C,C1*%
X172195000Y-114300000D03*
X175145000Y-114300000D03*
%TD*%
D12*
%TO.C,JP10*%
X180340000Y-81280000D03*
D13*
X181640000Y-81280000D03*
%TD*%
D14*
%TO.C,R7*%
X173435000Y-99060000D03*
X175260000Y-99060000D03*
%TD*%
D15*
%TO.C,D5*%
X176534999Y-75594999D03*
D16*
X173995000Y-75595000D03*
%TD*%
D14*
%TO.C,R14*%
X165815000Y-111760000D03*
X167640000Y-111760000D03*
%TD*%
D12*
%TO.C,JP3*%
X197470000Y-106680000D03*
D13*
X198770000Y-106680000D03*
%TD*%
D14*
%TO.C,R9*%
X150575000Y-99060000D03*
X152400000Y-99060000D03*
%TD*%
D12*
%TO.C,JP20*%
X146020000Y-101600000D03*
D13*
X147320000Y-101600000D03*
%TD*%
D17*
%TO.C,TP5*%
X187960000Y-106680000D03*
%TD*%
D12*
%TO.C,JP11*%
X154940000Y-106680000D03*
D13*
X156240000Y-106680000D03*
%TD*%
D14*
%TO.C,R10*%
X160735000Y-114300000D03*
X162560000Y-114300000D03*
%TD*%
D17*
%TO.C,TP2*%
X185420000Y-76200000D03*
%TD*%
D12*
%TO.C,JP7*%
X158720000Y-86360000D03*
D13*
X160020000Y-86360000D03*
%TD*%
D17*
%TO.C,TP7*%
X157480000Y-99060000D03*
%TD*%
D18*
%TO.C,D1*%
X152399999Y-81002699D03*
D16*
X150603949Y-82798751D03*
%TD*%
D12*
%TO.C,JP15*%
X179690000Y-114300000D03*
D13*
X180990000Y-114300000D03*
%TD*%
D12*
%TO.C,JP19*%
X167640000Y-116840000D03*
D13*
X168940000Y-116840000D03*
%TD*%
D14*
%TO.C,R1*%
X196295000Y-119380000D03*
X198120000Y-119380000D03*
%TD*%
D12*
%TO.C,JP1*%
X177800000Y-106680000D03*
D13*
X179100000Y-106680000D03*
%TD*%
D14*
%TO.C,R13*%
X193040000Y-114300000D03*
X194865000Y-114300000D03*
%TD*%
D12*
%TO.C,JP16*%
X169530000Y-93980000D03*
D13*
X170830000Y-93980000D03*
%TD*%
D12*
%TO.C,JP8*%
X167640000Y-83820000D03*
D13*
X168940000Y-83820000D03*
%TD*%
D12*
%TO.C,JP18*%
X191740000Y-119380000D03*
D13*
X193040000Y-119380000D03*
%TD*%
D17*
%TO.C,TP4*%
X187960000Y-88900000D03*
%TD*%
D19*
%TO.C,J2*%
X154720000Y-122460000D03*
D20*
X154720000Y-124460000D03*
X156720000Y-122460000D03*
X156720000Y-124460000D03*
X158720000Y-122460000D03*
X158720000Y-124460000D03*
X160720000Y-122460000D03*
X160720000Y-124460000D03*
X162720000Y-122460000D03*
X162720000Y-124460000D03*
X164720000Y-122460000D03*
X164720000Y-124460000D03*
X166720000Y-122460000D03*
X166720000Y-124460000D03*
X168720000Y-122460000D03*
X168720000Y-124460000D03*
X170720000Y-122460000D03*
X170720000Y-124460000D03*
X172720000Y-122460000D03*
X172720000Y-124460000D03*
X174720000Y-122460000D03*
X174720000Y-124460000D03*
X176720000Y-122460000D03*
X176720000Y-124460000D03*
X178720000Y-122460000D03*
X178720000Y-124460000D03*
X180720000Y-122460000D03*
X180720000Y-124460000D03*
%TD*%
D21*
%TO.C,Q4*%
X157480000Y-91440000D03*
X157480000Y-93340000D03*
X159355000Y-92390000D03*
%TD*%
D14*
%TO.C,R5*%
X181967500Y-99060000D03*
X183792500Y-99060000D03*
%TD*%
D21*
%TO.C,Q3*%
X193040000Y-99060000D03*
X193040000Y-100960000D03*
X194915000Y-100010000D03*
%TD*%
D12*
%TO.C,JP17*%
X133320000Y-96520000D03*
D13*
X134620000Y-96520000D03*
%TD*%
D12*
%TO.C,JP13*%
X161910000Y-104140000D03*
D13*
X163210000Y-104140000D03*
%TD*%
D21*
%TO.C,Q2*%
X167640000Y-76200000D03*
X167640000Y-78100000D03*
X169515000Y-77150000D03*
%TD*%
D22*
%TO.C,D8*%
X190777299Y-85345899D03*
D16*
X188981249Y-83549849D03*
%TD*%
D14*
%TO.C,R6*%
X188675000Y-96520000D03*
X190500000Y-96520000D03*
%TD*%
D17*
%TO.C,TP6*%
X137160000Y-91440000D03*
%TD*%
D14*
%TO.C,R12*%
X201375000Y-114300000D03*
X203200000Y-114300000D03*
%TD*%
D17*
%TO.C,TP1*%
X147320000Y-93980000D03*
%TD*%
D14*
%TO.C,R4*%
X140415000Y-99060000D03*
X142240000Y-99060000D03*
%TD*%
D15*
%TO.C,D2*%
X161294999Y-78134999D03*
D16*
X158755000Y-78135000D03*
%TD*%
D12*
%TO.C,JP14*%
X139050000Y-111760000D03*
D13*
X140350000Y-111760000D03*
%TD*%
D12*
%TO.C,JP4*%
X205090000Y-101600000D03*
D13*
X206390000Y-101600000D03*
%TD*%
D17*
%TO.C,TP3*%
X152400000Y-88900000D03*
%TD*%
D12*
%TO.C,JP9*%
X173960000Y-88900000D03*
D13*
X175260000Y-88900000D03*
%TD*%
D12*
%TO.C,JP5*%
X133320000Y-104140000D03*
D13*
X134620000Y-104140000D03*
%TD*%
D14*
%TO.C,R3*%
X206455000Y-119380000D03*
X208280000Y-119380000D03*
%TD*%
D12*
%TO.C,JP2*%
X197470000Y-93980000D03*
D13*
X198770000Y-93980000D03*
%TD*%
D14*
%TO.C,R2*%
X180340000Y-88900000D03*
X182165000Y-88900000D03*
%TD*%
D21*
%TO.C,Q1*%
X185420000Y-91440000D03*
X185420000Y-93340000D03*
X187295000Y-92390000D03*
%TD*%
D12*
%TO.C,JP12*%
X166990000Y-106680000D03*
D13*
X168290000Y-106680000D03*
%TD*%
D14*
%TO.C,R11*%
X191215000Y-91440000D03*
X193040000Y-91440000D03*
%TD*%
D12*
%TO.C,JP6*%
X143480000Y-106680000D03*
D13*
X144780000Y-106680000D03*
%TD*%
D14*
%TO.C,R8*%
X150575000Y-114300000D03*
X152400000Y-114300000D03*
%TD*%
M02*
