M48
; DRILL file {KiCad (7.0.0)} date Sun Mar 24 23:30:49 2024
; FORMAT={-:-/ absolute / inch / decimal}
; #@! TF.CreationDate,2024-03-24T23:30:49+02:00
; #@! TF.GenerationSoftware,Kicad,Pcbnew,(7.0.0)
; #@! TF.FileFunction,Plated,1,2,PTH
FMAT,2
INCH
; #@! TA.AperFunction,Plated,PTH,ViaDrill
T1C0.0157
; #@! TA.AperFunction,Plated,PTH,ComponentDrill
T2C0.0295
; #@! TA.AperFunction,Plated,PTH,ComponentDrill
T3C0.0354
; #@! TA.AperFunction,Plated,PTH,ComponentDrill
T4C0.0394
%
G90
G05
T1
X5.431Y-4.4003
X6.1972Y-3.7113
X6.1972Y-4.0176
X6.2035Y-3.6374
X6.5643Y-4.3593
X6.6621Y-3.7547
X6.87Y-3.7
X7.0958Y-3.5658
X7.4003Y-4.5382
X7.5183Y-3.7475
X7.6538Y-3.9014
X7.8234Y-3.7711
T2
X6.0913Y-4.8213
X6.0913Y-4.9
X6.1701Y-4.8213
X6.1701Y-4.9
X6.2488Y-4.8213
X6.2488Y-4.9
X6.3276Y-4.8213
X6.3276Y-4.9
X6.4063Y-4.8213
X6.4063Y-4.9
X6.485Y-4.8213
X6.485Y-4.9
X6.5638Y-4.8213
X6.5638Y-4.9
X6.6425Y-4.8213
X6.6425Y-4.9
X6.7213Y-4.8213
X6.7213Y-4.9
X6.8Y-4.8213
X6.8Y-4.9
X6.8787Y-4.8213
X6.8787Y-4.9
X6.9575Y-4.8213
X6.9575Y-4.9
X7.0362Y-4.8213
X7.0362Y-4.9
X7.115Y-4.8213
X7.115Y-4.9
T3
X5.9293Y-3.2598
X6.0Y-3.1891
X6.2502Y-3.0762
X6.3502Y-3.0762
X6.8502Y-2.9762
X6.9502Y-2.9762
X7.4402Y-3.2894
X7.5109Y-3.3601
T4
X5.5293Y-3.2293
X5.6Y-3.3
X6.6Y-2.7
X6.6Y-2.8
X7.8293Y-3.3707
X7.9Y-3.3
T0
M30
